<svg width="611" height="700" viewBox="0 0 611 700" fill="none" xmlns="http://www.w3.org/2000/svg">
<mask id="mask0" mask-type="alpha" maskUnits="userSpaceOnUse" x="0" y="0" width="611" height="700">
<rect y="0.545532" width="610.791" height="698.6" fill="#C4C4C4"/>
</mask>
<g mask="url(#mask0)">
<path d="M-54.8186 465.628L-17.3742 -22.7734L436.022 -33.2195C507.69 -29.3536 644.245 -18.9454 617.124 -8.23991C583.223 5.14196 585.007 146.99 591.252 164.832C597.497 182.675 610.948 305.019 610.948 331.001C610.948 370.097 593.929 490.458 585.007 558.259C577.87 612.501 577.87 675.425 578.763 700.107L560.028 725.087H-1.09436L-54.8186 465.628Z" fill="#FF45E5"/>
<path d="M107.699 39.6808C110.064 35.3552 112.436 31.0296 114.801 26.7041C107.576 24.7449 100.351 22.7858 93.1263 20.8332C92.8355 45.5129 92.5447 70.1861 92.2604 94.8659C92.1893 100.666 96.7388 105.541 102.348 106.297C107.977 107.054 113.593 103.595 115.111 97.963C117.308 89.8032 119.506 81.6499 121.703 73.4901C114.226 71.4276 106.749 69.365 99.2721 67.3024C96.448 87.857 93.6175 108.418 90.7934 128.973C90.3669 132.07 90.1666 135.147 91.9631 137.941C93.359 140.1 95.1491 141.697 97.5272 142.699C102.704 144.885 109.237 143.042 112.055 137.941C114.989 132.619 117.922 127.298 120.863 121.977C113.774 121.052 106.691 120.121 99.6016 119.196C100.138 122.016 100.603 124.841 100.991 127.679C100.855 126.645 100.713 125.617 100.577 124.582C102.368 138.154 102.335 151.9 100.513 165.472C100.649 164.437 100.791 163.409 100.926 162.375C99.5305 172.435 97.1653 182.315 93.8307 191.91C91.8274 197.665 96.112 204.893 101.954 206.225C104.933 206.904 108.274 206.756 110.917 205.055C113.618 203.316 115.085 201.072 116.262 198.098C117.502 194.975 118.737 191.852 119.977 188.729C112.358 187.695 104.746 186.666 97.1265 185.632C98.9812 208.359 100.836 231.08 102.691 253.807C103.078 258.546 105.301 262.529 109.838 264.443C113.961 266.182 119.389 265.471 122.543 262.038C128.65 255.384 134.757 248.725 140.864 242.071C134.246 239.33 127.622 236.582 121.005 233.84C116.766 272.143 114.756 310.679 115.027 349.215C115.105 360.155 115.37 371.095 115.809 382.029C116.055 388.107 120.986 393.958 127.441 393.667C133.535 393.395 139.339 388.546 139.074 382.029C137.523 343.525 138.221 304.938 141.187 266.518C142.027 255.611 143.061 244.716 144.263 233.84C144.463 232.024 143.578 229.515 142.673 227.97C141.394 225.784 139.416 224.181 137.109 223.211C132.986 221.471 127.558 222.183 124.404 225.616C118.297 232.269 112.19 238.929 106.083 245.582C112.701 248.324 119.325 251.072 125.942 253.813C124.088 231.086 122.233 208.365 120.378 185.638C119.9 179.813 116.313 175.015 110.29 174.207C107.809 173.871 105.036 174.188 102.872 175.591C100.17 177.33 98.7034 179.574 97.5272 182.548C96.2864 185.671 95.0521 188.794 93.8114 191.917C101.288 193.979 108.765 196.042 116.242 198.104C125.729 170.838 127.422 141.303 122.013 113.015C121.16 108.547 116.539 105.243 112.345 104.681C107.873 104.08 103.007 106.149 100.752 110.235C97.818 115.556 94.8841 120.878 91.9437 126.199C99.033 129.186 106.116 132.18 113.205 135.167C116.029 114.612 118.859 94.0512 121.684 73.4966C122.129 70.2508 122.239 67.477 120.514 64.5286C119.105 62.1169 116.333 59.8151 113.56 59.1815C107.44 57.7849 100.946 61.0177 99.2527 67.3089C97.0555 75.4687 94.8583 83.622 92.6611 91.7817C100.28 92.8163 107.893 93.8443 115.512 94.8788C115.803 70.1991 116.094 45.5258 116.378 20.8461C116.436 15.9386 112.746 10.7401 107.841 9.62157C102.897 8.49653 97.2493 10.3263 94.7032 14.9687C92.3379 19.2943 89.9662 23.6199 87.601 27.9455C84.68 33.2862 86.1147 40.877 91.7757 43.8706C97.2299 46.7349 104.578 45.3836 107.699 39.6808Z" fill="#690D44"/>
<path d="M106.911 406.864C103.253 417.144 99.6017 427.425 95.944 437.712C103.033 436.787 110.116 435.856 117.205 434.932C116.701 434.182 116.268 433.406 115.893 432.578C116.281 433.503 116.675 434.434 117.063 435.358C116.54 434.098 116.184 432.817 115.99 431.466C116.126 432.494 116.268 433.529 116.404 434.563C116.268 433.36 116.262 432.177 116.397 430.975C116.262 432.003 116.12 433.037 115.984 434.072C116.068 433.477 116.184 432.895 116.326 432.307C108.849 432.307 101.372 432.307 93.8954 432.307C96.9198 440.014 99.9378 447.727 102.962 455.434C102.962 453.372 102.962 451.309 102.962 449.247C98.1865 469.446 93.4043 489.645 88.6286 509.844C83.8271 530.133 79.032 550.423 74.2305 570.719C71.5422 582.092 68.8473 593.465 66.159 604.838C65.1961 608.925 66.1332 613.147 69.1511 616.16C71.8394 618.85 76.7314 620.641 80.4667 619.154C85.1454 617.291 89.7337 615.248 94.0764 612.694C98.2769 610.224 102.187 607.334 105.98 604.282C113.031 598.618 119.008 591.706 124.036 584.206C116.947 583.282 109.864 582.35 102.775 581.426C106.187 598.185 109.605 614.944 113.018 631.703C114.187 637.451 121.735 641.978 127.325 639.831C130.117 638.758 132.909 637.691 135.7 636.617C130.789 632.874 125.884 629.137 120.973 625.393C121.541 647.312 122.117 669.237 122.685 691.156C122.763 694.188 123.926 697.221 126.091 699.387C128.107 701.404 131.416 702.924 134.318 702.794C140.483 702.516 146.118 697.673 145.95 691.156C145.381 669.237 144.806 647.312 144.237 625.393C144.14 621.669 142.576 618.513 139.655 616.25C136.961 614.168 132.889 612.869 129.516 614.168C126.724 615.242 123.933 616.309 121.141 617.382C125.91 620.091 130.679 622.8 135.448 625.509C132.036 608.75 128.618 591.991 125.206 575.232C124.837 573.434 123.493 571.378 122.214 570.098C120.391 568.275 118.052 567.234 115.531 566.897C110.756 566.257 106.588 568.501 103.938 572.451C102.943 573.939 101.902 575.387 100.817 576.809C101.424 576.027 102.032 575.238 102.633 574.456C98.516 579.764 93.7597 584.516 88.4671 588.648C89.249 588.04 90.0374 587.433 90.8194 586.831C85.3845 591.028 79.4585 594.513 73.1448 597.202C74.0689 596.814 74.9995 596.42 75.9236 596.032C75.3743 596.265 74.825 596.485 74.2693 596.704C79.0385 601.476 83.8077 606.248 88.5769 611.02C94.1539 587.452 99.7245 563.884 105.302 540.323C110.879 516.762 116.449 493.188 122.026 469.627C122.802 466.349 123.577 463.077 124.353 459.799C124.928 457.355 125.69 454.853 125.8 452.337C125.916 449.809 124.669 447.423 123.771 445.135C121.289 438.798 118.801 432.455 116.32 426.119C115.363 423.681 114.278 421.716 112.152 420.073C110.187 418.554 107.654 417.461 105.101 417.578C100.067 417.804 95.1492 421.011 93.8825 426.119C92.1829 433.011 93.0876 440.712 97.1008 446.686C99.7503 450.63 103.86 452.893 108.694 452.24C113.47 451.6 116.779 448.361 118.362 443.906C122.02 433.626 125.671 423.345 129.329 413.058C130.298 410.336 129.574 406.515 128.159 404.09C126.75 401.678 123.978 399.376 121.205 398.743C118.226 398.064 114.885 398.213 112.242 399.913C109.605 401.62 107.97 403.883 106.911 406.864Z" fill="#690D44"/>
<path d="M221.889 17.0507C223.543 44.8728 225.198 72.6948 226.859 100.523C227.137 105.243 229.553 109.278 234.006 111.16C238.013 112.854 243.706 112.272 246.711 108.754C253.219 101.125 259.733 93.5016 266.24 85.872C259.623 83.1306 252.999 80.3826 246.381 77.6412C247.642 104.972 248.908 132.309 250.168 159.64C250.44 165.459 254.388 170.282 260.256 171.071C265.407 171.763 272.16 168.465 273.019 162.737C273.672 158.398 274.318 154.066 274.971 149.728C267.352 148.693 259.739 147.665 252.12 146.631C252.973 173.845 253.82 201.066 254.673 228.28C254.886 235.043 254.705 241.955 255.312 248.692C255.636 252.3 257.012 255.688 258.052 259.141C259.041 262.419 259.972 265.723 260.851 269.034C262.492 275.247 263.94 281.512 265.18 287.817C265.762 290.758 266.298 293.707 266.79 296.668C267.067 298.356 267.339 300.05 267.591 301.744C267.688 302.377 267.778 303.017 267.869 303.651C267.985 304.472 267.992 304.498 267.888 303.742C267.94 304.168 267.998 304.589 268.05 305.015C269.859 319.479 270.641 334.034 270.389 348.614C270.286 354.705 275.811 360.53 282.021 360.252C288.529 359.961 293.402 355.138 293.654 348.614C294.067 338.081 294.474 327.548 294.888 317.009C287.133 317.009 279.378 317.009 271.623 317.009C272.173 323.275 272.276 329.559 271.875 335.844C271.791 337.176 271.682 338.501 271.559 339.827C271.52 340.247 270.977 344.618 271.294 342.407C270.835 345.614 270.247 348.801 269.543 351.957C268.173 358.093 266.344 364.125 264.075 369.983C263.798 370.694 263.52 371.399 263.229 372.104C263.423 371.632 264.011 370.345 263.061 372.479C262.44 373.869 261.807 375.253 261.141 376.623C259.81 379.365 258.382 382.055 256.85 384.693C253.328 390.758 248.036 396.15 246.924 403.172C245.793 410.304 244.656 417.442 243.525 424.573C241.224 439.063 238.917 453.559 236.617 468.049C233.993 484.55 231.369 501.044 228.746 517.544C227.822 523.344 229.754 528.853 235.479 531.271C241.244 533.702 246.427 531.187 250.007 526.512C252.805 522.859 255.603 519.2 258.401 515.546C251.177 513.587 243.952 511.628 236.727 509.675C234.736 563.529 232.746 617.388 230.755 671.241C230.342 682.459 247.299 687.529 252.43 677.112C255.054 671.791 257.678 666.463 260.301 661.142C253.606 661.142 246.911 661.142 240.216 661.142C245.263 671.752 250.311 682.356 255.358 692.966C257.503 697.473 263.882 699.691 268.496 698.313C279.016 695.165 287.527 688.654 293.686 679.615C286.597 678.69 279.514 677.759 272.425 676.834C274.964 684.916 277.511 692.999 280.05 701.081C281.537 705.801 286.067 709.861 291.269 709.622C295.928 709.415 301.77 706.208 302.488 701.081C302.604 700.26 303.199 699.367 302.384 700.822C301.589 702.232 300.924 703.583 299.45 704.436C298.869 704.773 296.665 705.271 298.513 704.883C299.773 704.618 295.263 705.141 297.473 705.07C299.056 705.018 296.458 704.934 296.155 704.857C298.151 705.374 294.313 703.764 295.276 704.372C296.432 705.096 293.201 702.368 294.455 703.706C293.085 702.245 292.309 700.583 292.206 698.553C292.51 704.624 297.337 710.482 303.838 710.191C309.881 709.919 315.8 705.064 315.471 698.553C314.986 688.906 307.567 682.272 298.067 681.819C290.267 681.451 281.22 686.591 280.057 694.9C287.534 694.9 295.011 694.9 302.488 694.9C299.948 686.817 297.402 678.735 294.862 670.653C291.741 660.728 279.23 659.603 273.601 667.873C272.412 669.612 274.086 667.524 273.226 668.461C272.754 668.978 272.308 669.515 271.824 670.026C271.216 670.659 270.557 671.229 269.943 671.849C268.496 673.298 270.441 671.675 269.42 672.308C268.082 673.149 266.77 673.983 265.387 674.752C264.541 675.224 264.198 675.302 265.297 674.869C264.314 675.25 263.326 675.567 262.318 675.871C266.699 677.655 271.074 679.434 275.456 681.218C270.408 670.608 265.361 660.004 260.314 649.394C256.657 641.706 243.932 641.874 240.229 649.394C237.606 654.715 234.982 660.043 232.358 665.364C239.583 667.323 246.808 669.282 254.033 671.235C256.023 617.382 258.014 563.522 260.004 509.669C260.185 504.781 256.282 499.544 251.467 498.444C245.974 497.19 241.619 499.492 238.329 503.792C235.531 507.445 232.733 511.104 229.935 514.758C237.024 517.745 244.107 520.738 251.196 523.726C255.875 494.293 260.553 464.868 265.232 435.436C266.402 428.078 267.572 420.72 268.741 413.362C268.987 411.804 269.297 410.245 269.484 408.681C269.711 406.786 269.788 407.116 269.426 407.872C269.717 407.271 270.37 406.592 270.77 406.023C272.761 403.236 274.635 400.359 276.386 397.411C283.088 386.122 288.193 373.649 291.347 360.905C294.881 346.616 296.2 331.661 294.92 316.99C294.39 310.938 289.951 305.054 283.288 305.352C276.78 305.643 271.908 310.466 271.656 316.99C271.242 327.523 270.835 338.055 270.421 348.595C278.176 348.595 285.931 348.595 293.686 348.595C294.138 322.311 291.263 295.886 285.194 270.307C283.714 264.055 282.028 257.848 280.147 251.705C279.708 250.27 279.249 248.841 278.797 247.412C278.183 245.466 278.81 248.744 278.551 246.63C278.467 245.964 278.506 245.259 278.486 244.587C278.37 240.959 278.26 237.332 278.144 233.698C277.717 220.088 277.291 206.484 276.864 192.874C276.38 177.453 275.901 162.026 275.417 146.605C275.236 140.786 271.126 135.956 265.329 135.173C260.179 134.481 253.425 137.779 252.566 143.508C251.913 147.846 251.267 152.178 250.614 156.517C258.233 157.551 265.846 158.579 273.465 159.614C272.205 132.283 270.938 104.946 269.678 77.6153C269.459 72.9082 266.932 68.8413 262.524 66.9791C258.518 65.2851 252.824 65.867 249.819 69.3844C243.312 77.014 236.798 84.6371 230.29 92.2667C236.908 95.0081 243.532 97.7561 250.149 100.498C248.495 72.6755 246.84 44.8534 245.179 17.0248C244.818 10.96 240.087 5.09554 233.547 5.38649C227.531 5.67745 221.501 10.5397 221.889 17.0507Z" fill="#690D44"/>
<path d="M481.973 187.416C465.604 243.449 461.798 302.222 459.174 360.246C457.875 388.954 456.873 417.681 454.76 446.337C453.707 460.639 452.375 474.916 450.572 489.14C450.463 490.007 450.346 490.873 450.236 491.739C449.855 494.727 450.605 489.121 450.191 492.102C449.952 493.828 449.713 495.554 449.461 497.274C448.963 500.714 448.427 504.147 447.865 507.581C446.695 514.699 445.377 521.799 443.89 528.859C440.692 544.041 436.711 559.061 431.715 573.751C430.423 577.566 429.059 581.355 427.625 585.118C427.011 586.734 426.384 588.344 425.744 589.954C425.421 590.756 425.098 591.558 424.775 592.359C424.549 592.915 423.101 596.549 424.284 593.581C421.285 601.127 417.595 608.472 413.84 615.662C411.359 620.408 411.992 625.845 415.656 629.764C416.496 630.662 417.317 631.574 418.106 632.512C418.455 632.932 418.791 633.359 419.14 633.779C420.051 634.878 417.821 631.923 419.049 633.701C420.367 635.609 421.653 637.523 422.804 639.546C423.411 640.613 423.986 641.693 424.536 642.792C424.781 643.284 425.014 643.775 425.246 644.266C425.305 644.396 426.371 646.84 425.654 645.12C425.007 643.574 425.718 645.32 425.835 645.624C426.08 646.258 426.319 646.898 426.545 647.544C426.953 648.702 427.327 649.872 427.67 651.049C428.316 653.273 428.852 655.536 429.266 657.819C429.389 658.491 429.479 659.163 429.602 659.836C429.88 661.439 429.382 657.553 429.505 659.176C429.596 660.398 429.744 661.614 429.815 662.842C429.945 665.157 429.951 667.472 429.828 669.787C429.764 671.015 429.647 672.231 429.531 673.453C429.311 675.683 429.848 671.72 429.563 673.194C429.434 673.86 429.337 674.539 429.208 675.211C428.329 679.925 429.441 684.406 433.376 687.445C436.917 690.18 442.372 690.884 446.294 688.356C453.894 683.449 461.5 678.541 469.1 673.634C463.265 670.285 457.429 666.935 451.6 663.586C449.791 685.537 459.012 708.381 475.356 723.09C479.879 727.164 487.402 727.888 491.809 723.09C495.887 718.648 496.643 710.98 491.809 706.628C490.09 705.077 488.442 703.454 486.904 701.721C486.18 700.906 485.495 700.059 484.804 699.225C483.795 698.01 486.012 700.952 485.14 699.632C484.836 699.18 484.5 698.747 484.196 698.301C482.878 696.4 481.669 694.421 480.571 692.384C480.054 691.427 479.563 690.451 479.097 689.468C478.916 689.087 478.723 688.259 478.419 687.981C479.143 688.647 479.188 689.895 478.496 688.117C476.861 683.914 475.743 679.576 474.974 675.134C474.696 673.537 475.136 675.186 475.058 675.8C475.123 675.315 474.936 674.668 474.89 674.177C474.793 673.091 474.722 672.004 474.684 670.918C474.593 668.468 474.677 666.017 474.877 663.573C475.595 654.838 464.434 648.967 457.377 653.525C449.778 658.433 442.171 663.34 434.572 668.248C440.265 672.632 445.965 677.009 451.658 681.393C456.24 656.881 449.222 631.581 432.135 613.295C432.743 617.996 433.35 622.697 433.951 627.397C461.126 575.361 471.95 517.493 476.997 459.501C482.012 401.943 481.644 344.043 487.324 286.536C488.106 278.635 488.804 270.656 490.051 262.807C489.553 265.969 490.032 262.975 490.109 262.4C490.271 261.236 490.432 260.072 490.6 258.908C490.891 256.871 491.195 254.835 491.512 252.805C492.138 248.744 492.81 244.69 493.528 240.642C496.345 224.782 499.926 209.057 504.443 193.591C506.149 187.753 502.375 180.653 496.32 179.276C490.058 177.867 483.802 181.164 481.973 187.416Z" fill="#690D44"/>
<g opacity="0.22">
<g opacity="0.22">
<path opacity="0.22" d="M88.1247 33.5188C95.5564 82.1024 102.988 130.68 110.42 179.263C112.475 192.712 114.691 206.128 116.507 219.616C116.126 216.777 115.745 213.945 115.364 211.107C123.816 274.588 125.729 338.909 120.973 402.777C119.629 420.843 117.742 438.863 115.351 456.818C115.732 453.979 116.113 451.148 116.494 448.309C114.362 464.176 111.835 479.985 108.888 495.722C106.316 509.456 103.447 523.131 101.515 536.967C99.2464 553.222 97.2366 569.606 99.0461 586.023C101.069 604.373 105.379 621.778 115.079 637.749C122.343 649.71 132.101 660.191 137.736 673.116C136.663 670.569 135.584 668.021 134.512 665.474C135.914 668.856 136.954 672.302 137.465 675.936C137.084 673.097 136.702 670.265 136.321 667.427C136.625 670.162 136.605 672.851 136.237 675.58C136.618 672.741 137 669.909 137.381 667.071C137.226 668.009 137.038 668.933 136.825 669.858C134.893 678.14 135.694 687.07 140.05 694.518C143.934 701.158 151.54 707.488 159.165 709.228C167.353 711.096 176.543 710.689 183.813 706.001C190.663 701.579 196.608 695.042 198.515 686.876C203.278 666.463 197.927 646.762 186.76 629.434C179.302 617.854 170.21 607.418 164.801 594.616C165.873 597.163 166.953 599.711 168.025 602.258C165.066 594.984 163.185 587.413 162.132 579.641C162.513 582.48 162.894 585.312 163.275 588.15C161.544 574.313 162.384 560.373 164.193 546.588C163.812 549.427 163.431 552.259 163.049 555.097C165.143 539.625 168.452 524.359 171.263 509.009C174.817 489.619 177.661 470.112 180.142 450.553C184.433 416.698 186.85 382.611 187.387 348.491C187.929 313.951 186.546 279.379 183.231 244.994C179.683 208.178 173.544 171.692 167.954 135.154C161.905 95.6029 155.85 56.0455 149.801 16.4945C148.671 9.09771 141.258 0.970285 135.1 -2.63113C128.243 -6.64636 118.136 -8.34684 110.452 -5.85753C102.71 -3.34882 95.2462 1.44876 91.3365 8.85203C90.2637 11.3995 89.1845 13.947 88.1118 16.4945C86.5996 22.1714 86.5996 27.8484 88.1247 33.5188Z" fill="#690D44"/>
</g>
</g>
<g opacity="0.22">
<g opacity="0.22">
<path opacity="0.22" d="M250.045 38.0125C252.546 42.6226 254.815 47.3361 256.857 52.166C255.784 49.6185 254.705 47.071 253.632 44.5235C259.584 58.8904 263.339 73.9814 265.465 89.3699C265.083 86.5314 264.702 83.6994 264.321 80.861C269.53 120.102 264.644 159.801 259.933 198.835C254.614 242.905 251.131 287.008 250.22 331.395C249.283 377.128 250.537 422.879 252.921 468.553C255.299 514.085 258.808 559.546 262.427 604.993C265.568 644.389 269.82 691.363 307.522 714.012C312.653 717.096 318.424 719.424 324.162 721.118C332.033 723.439 341.772 722.01 348.81 717.892C355.447 714.006 361.773 706.395 363.512 698.766C365.379 690.574 364.972 681.373 360.287 674.106C355.718 667.019 349.378 661.821 341.171 659.396C339.569 658.924 338.011 658.368 336.467 657.721C339.013 658.795 341.559 659.874 344.105 660.948C341.165 659.635 338.457 658.006 335.911 656.04C338.069 657.708 340.228 659.377 342.386 661.045C339.698 658.872 337.32 656.422 335.181 653.713C336.848 655.872 338.515 658.032 340.183 660.191C336.984 656.001 334.47 651.404 332.389 646.568C333.462 649.115 334.541 651.663 335.614 654.21C331.394 644.085 329.112 633.307 327.639 622.47C328.02 625.309 328.402 628.141 328.783 630.979C326.256 611.692 325.358 592.114 323.865 572.729C322.237 551.644 320.686 530.553 319.309 509.449C316.53 466.84 314.475 424.179 313.991 381.479C313.506 338.883 314.585 296.248 318.081 253.781C321.254 215.271 327.697 177.058 329.856 138.471C332.408 92.8872 327.348 46.3792 305.279 5.70966C301.518 -1.22161 293.673 -6.93086 286.164 -8.9999C278.506 -11.1077 268.308 -10.1573 261.516 -5.7735C246.582 3.86045 241.489 22.2555 250.045 38.0125Z" fill="#690D44"/>
</g>
</g>
<g opacity="0.22">
<g opacity="0.22">
<path opacity="0.22" d="M479.724 199.475C486.109 259.251 486.91 319.596 482.089 379.52C480.719 396.596 478.884 413.627 476.609 430.606C476.99 427.767 477.372 424.935 477.753 422.097C475.142 441.475 471.963 460.769 468.182 479.952C464.441 498.942 459.878 517.745 455.665 536.631C450.883 558.065 446.889 579.764 445.157 601.676C443.612 621.177 444.892 640.691 448.537 659.913C450.282 669.108 452.873 678.134 456.44 686.791C460.99 697.828 465.836 708.381 472.926 718.027C474.935 721.758 477.682 724.752 481.165 727.008C484.254 729.84 487.88 731.748 492.041 732.737C499.699 734.845 509.897 733.894 516.689 729.511C523.519 725.107 529.529 718.545 531.391 710.385C533.187 702.497 533.174 692.533 528.166 685.725C522.957 678.638 518.673 670.976 515.222 662.888C516.295 665.435 517.374 667.983 518.447 670.53C513.645 659.06 510.601 646.988 508.895 634.684C509.276 637.523 509.658 640.354 510.039 643.193C507.519 624.281 508.275 605.226 510.795 586.359C510.414 589.197 510.033 592.03 509.651 594.868C513.096 569.658 519.474 545.004 524.999 520.202C530.551 495.289 535.106 470.15 538.654 444.869C546.073 392.044 549.951 338.915 549.039 285.56C548.548 256.8 546.758 228.073 543.701 199.475C543.869 195.065 542.952 190.96 540.948 187.145C539.656 183.175 537.452 179.742 534.331 176.845C528.78 171.291 519.681 167.114 511.713 167.47C503.441 167.838 494.859 170.56 489.094 176.845C483.705 182.716 478.839 191.192 479.724 199.475Z" fill="#690D44"/>
</g>
</g>
<g opacity="0.39">
<g opacity="0.39">
<path opacity="0.39" d="M88.0209 40.5019C91.6528 59.9185 94.7676 79.4192 97.3978 98.9974C97.0424 96.3336 96.6805 93.6697 96.3251 91.0058C106.658 168.549 109.224 247.005 105.56 325.117C103.757 363.556 100.37 401.879 95.8404 440.091C91.4847 476.829 86.541 513.594 85.4618 550.616C84.221 593.135 88.2083 637.031 103.363 677.054C106.206 684.561 110.025 690.839 117.173 695.022C123.616 698.792 133.109 700.389 140.327 698.055C147.597 695.701 154.616 691.195 158.286 684.237C161.86 677.468 164.141 668.532 161.317 661.071C154.415 642.844 149.898 623.873 147.261 604.573C147.617 607.237 147.979 609.901 148.334 612.565C138.634 539.411 154.279 465.657 160.942 392.93C167.999 315.852 169.44 238.179 163.682 160.959C160.27 115.226 154.402 69.6042 145.975 24.5251C144.657 17.4709 138.149 10.0612 132.165 6.55677C125.722 2.78724 116.229 1.1902 109.011 3.52433C101.741 5.87786 94.7224 10.3845 91.0518 17.3416C87.0968 24.8225 86.4635 32.1676 88.0209 40.5019Z" fill="#690D44"/>
</g>
</g>
<g opacity="0.39">
<g opacity="0.39">
<path opacity="0.39" d="M230.161 38.6268C237.709 78.9406 245.154 119.293 250.627 159.956C250.272 157.292 249.91 154.629 249.554 151.965C255.875 199.333 259.539 247.224 256.934 295.013C256.191 308.63 254.925 322.214 253.109 335.734C253.464 333.07 253.826 330.406 254.182 327.742C250.498 354.653 244.145 380.91 236.526 406.954C228.933 432.908 220.545 458.654 214.457 485.015C208.202 512.106 204.492 540 204.253 567.822C204.014 595.346 207.123 623.091 212.894 649.988C219.304 679.841 229.928 708.755 243.506 736.08C246.73 742.565 254.673 748.028 261.465 749.897C268.657 751.882 278.234 750.983 284.619 746.864C291.036 742.726 296.684 736.565 298.429 728.896C300.297 720.704 299.147 713.275 295.398 705.729C292.335 699.561 289.46 693.309 286.765 686.972C287.773 689.365 288.787 691.763 289.796 694.156C278.17 666.502 270.292 637.406 266.266 607.677C266.622 610.34 266.983 613.004 267.339 615.668C263.416 585.926 263.365 555.789 267.339 526.047C266.983 528.71 266.622 531.374 266.266 534.038C270.661 502.078 280.012 471.178 289.279 440.363C298.72 408.978 307.425 377.548 311.949 345.025C316.821 309.981 318.702 274.865 317.448 239.498C316.181 203.93 312.123 168.569 307.108 133.356C301.822 96.2753 295.004 59.44 288.109 22.637C286.791 15.5829 280.289 8.17314 274.299 4.66871C267.856 0.89918 258.363 -0.69786 251.144 1.63627C243.874 3.9898 236.856 8.49642 233.185 15.4536C229.237 22.9409 228.604 30.2924 230.161 38.6268Z" fill="#690D44"/>
</g>
</g>
<g opacity="0.39">
<g opacity="0.39">
<path opacity="0.39" d="M456.569 220.036C456.026 289.485 455.477 358.927 454.934 428.375C454.392 497.468 453.849 566.561 453.306 635.648C453.002 674.623 452.692 713.599 452.388 752.574C452.33 760.243 455.781 768.422 461.19 773.834C466.405 779.051 474.955 782.976 482.438 782.64C490.212 782.291 498.271 779.737 503.686 773.834C509.108 767.924 512.424 760.74 512.488 752.574C513.031 683.126 513.58 613.684 514.123 544.235C514.666 475.142 515.209 406.049 515.752 336.963C516.055 297.987 516.366 259.012 516.669 220.036C516.728 212.368 513.277 204.189 507.868 198.777C502.652 193.559 494.103 189.634 486.619 189.971C478.845 190.32 470.787 192.874 465.371 198.777C459.949 204.687 456.627 211.87 456.569 220.036Z" fill="#690D44"/>
</g>
</g>
<path d="M601.339 10.3197C584.466 53.5238 583.755 100.872 588.499 146.449C593.623 195.66 604.823 244.108 607.873 293.558C610.794 340.874 606.794 388.294 600.874 435.235C594.922 482.448 586.993 529.402 581.894 576.725C576.86 623.466 574.618 670.776 580.162 717.575C580.802 722.967 581.552 728.353 582.385 733.72C582.579 734.948 584.447 734.425 584.253 733.203C577.009 686.701 577.9 639.449 582.23 592.708C586.612 545.386 594.386 498.477 600.706 451.4C606.929 405.086 611.834 358.396 610.6 311.597C609.32 262.878 599.362 215.213 592.913 167.056C586.702 120.658 584.162 72.3197 597.669 26.9108C599.284 21.4731 601.146 16.1195 603.207 10.837C603.659 9.67315 601.785 9.16883 601.339 10.3197Z" fill="black"/>
<path d="M503.758 403.709C500.236 425.517 496.72 447.32 493.198 469.129C489.676 490.938 486.161 512.74 482.639 534.549C480.668 546.776 478.69 558.996 476.719 571.223C476.525 572.445 478.393 572.969 478.587 571.74C482.109 549.931 485.624 528.129 489.146 506.32C492.668 484.511 496.184 462.708 499.706 440.899C501.677 428.673 503.654 416.453 505.625 404.226C505.826 403.004 503.958 402.48 503.758 403.709Z" fill="black"/>
<path d="M232.914 277.013C235.44 290.959 237.554 304.977 239.227 319.053C240.895 333.07 242.142 347.146 242.963 361.242C243.783 375.337 244.184 389.458 244.158 403.579C244.132 417.701 243.68 431.815 242.807 445.911C241.935 460.006 240.63 474.069 238.904 488.08C238.691 489.826 238.465 491.565 238.239 493.304C238.077 494.539 240.016 494.526 240.177 493.304C242.013 479.235 243.428 465.107 244.41 450.954C245.392 436.8 245.942 422.615 246.065 408.422C246.187 394.301 245.884 380.18 245.16 366.078C244.43 351.905 243.273 337.758 241.69 323.656C240.113 309.606 238.116 295.608 235.692 281.681C235.389 279.948 235.085 278.222 234.768 276.495C234.562 275.273 232.694 275.791 232.914 277.013Z" fill="black"/>
<path d="M77.2158 74.7832C79.9429 85.303 82.3986 95.8939 84.5635 106.543C86.7413 117.244 88.6348 128.003 90.2439 138.801C91.8466 149.566 93.1585 160.383 94.186 171.22C95.2135 182.037 95.9502 192.886 96.4026 203.742C96.8549 214.657 97.023 225.577 96.8937 236.498C96.8808 237.836 96.8549 239.175 96.8355 240.513C96.8162 241.761 98.7549 241.761 98.7743 240.513C98.9681 229.592 98.8777 218.672 98.4964 207.758C98.1151 196.844 97.4366 185.942 96.4801 175.06C95.5172 164.204 94.27 153.368 92.7384 142.577C91.2068 131.766 89.3909 120.994 87.2842 110.274C85.1839 99.56 82.7928 88.898 80.1239 78.3071C79.7814 76.9557 79.4389 75.6109 79.0899 74.2595C78.7732 73.0569 76.8992 73.5677 77.2158 74.7832Z" fill="black"/>
<path d="M584.537 105.011C586.263 120.231 584.518 135.716 579.775 150.271C575.064 164.728 567.406 178.267 557.331 189.66C551.65 196.087 545.214 201.828 538.131 206.665C537.11 207.363 538.073 209.044 539.107 208.339C551.954 199.559 562.714 187.921 570.753 174.608C578.741 161.372 584.059 146.495 586.14 131.164C587.316 122.494 587.465 113.7 586.476 105.004C586.334 103.782 584.395 103.769 584.537 105.011Z" fill="black"/>
<path d="M592.312 475.801C587.258 486.496 581.72 496.957 575.703 507.134C569.687 517.318 563.205 527.224 556.284 536.806C552.381 542.205 548.342 547.5 544.16 552.686C543.385 553.649 544.749 555.033 545.53 554.056C553.001 544.784 560.051 535.17 566.637 525.251C573.202 515.359 579.316 505.162 584.938 494.701C588.111 488.804 591.123 482.823 593.985 476.771C594.515 475.653 592.842 474.67 592.312 475.801Z" fill="black"/>
<path d="M404.315 133.124C400.282 162.123 397.814 191.302 395.675 220.495C393.516 250.011 391.668 279.553 388.792 309.011C386.136 336.193 382.576 363.298 377.057 390.059C371.88 415.172 365.03 439.981 355.763 463.904C346.522 487.757 334.812 510.71 320.175 531.717C318.327 534.375 316.427 536.993 314.488 539.579C313.739 540.582 315.425 541.545 316.162 540.556C331.407 520.182 343.756 497.804 353.618 474.366C363.596 450.637 371.053 425.905 376.721 400.812C382.582 374.878 386.492 348.549 389.38 322.13C392.599 292.711 394.583 263.176 396.676 233.659C398.77 204.15 400.98 174.634 404.657 145.273C405.142 141.393 405.653 137.514 406.196 133.641C406.357 132.419 404.489 131.895 404.315 133.124Z" fill="black"/>
<path d="M110.096 5.22475C117.231 54.998 121.981 105.114 124.294 155.346C126.601 205.443 126.504 255.656 124.003 305.746C121.528 355.261 116.52 404.562 109.56 453.637C103.595 495.677 97.1265 537.892 96.8551 580.443C96.6031 620.595 102.303 661.549 121.044 697.537C123.409 702.076 125.975 706.499 128.702 710.831C129.367 711.885 131.041 710.915 130.375 709.855C108.035 674.403 99.7696 632.88 98.8778 591.447C97.9602 548.715 104.022 506.184 110.032 463.995C116.83 416.239 122.297 368.392 125.154 320.223C128.094 270.618 128.669 220.87 126.886 171.213C125.096 121.33 120.921 71.5374 114.368 22.0551C113.599 16.2682 112.804 10.4879 111.971 4.71395C111.79 3.47899 109.922 4.00272 110.096 5.22475Z" fill="black"/>
<path d="M238.006 5.13417C251.9 53.0841 262.401 101.991 269.368 151.428C276.36 201.085 279.785 251.246 279.624 301.394C279.469 351.543 275.733 401.684 268.392 451.29C264.728 476.034 259.972 500.546 254.834 525.025C249.703 549.478 244.675 574.119 243.615 599.155C241.935 638.919 252.146 681.399 282.234 709.318C285.756 712.59 289.524 715.57 293.46 718.331C294.481 719.049 295.456 717.368 294.435 716.657C259.81 692.397 245.399 649.587 245.347 608.711C245.315 583.152 249.987 557.903 255.151 532.965C260.185 508.628 265.219 484.33 269.045 459.766C276.593 411.364 280.735 362.431 281.446 313.447C282.163 264.339 279.436 215.18 273.297 166.454C267.19 117.974 257.736 69.9209 244.953 22.7598C243.312 16.7014 241.612 10.6559 239.861 4.62337C239.531 3.42721 237.657 3.93154 238.006 5.13417Z" fill="black"/>
<path d="M490.342 195.699C486.477 232.703 482.613 269.7 478.748 306.703C474.884 343.707 471.019 380.704 467.155 417.707C463.29 454.71 459.426 491.707 455.561 528.711C452.298 559.94 448.11 591.357 449.17 622.82C450.113 650.797 455.574 679.518 471.575 703.021C473.481 705.82 475.524 708.51 477.676 711.129C478.47 712.092 479.834 710.715 479.046 709.758C460.492 687.199 453.177 658.368 451.432 629.706C449.584 599.375 453.287 569.057 456.434 538.94C460.266 502.279 464.092 465.618 467.924 428.957C471.756 392.297 475.582 355.636 479.414 318.975C483.227 282.483 487.033 245.996 490.846 209.504C491.324 204.9 491.809 200.296 492.287 195.693C492.41 194.458 490.471 194.464 490.342 195.699Z" fill="black"/>
</g>
</svg>
