<svg width="254" height="700" viewBox="0 0 254 700" fill="none" xmlns="http://www.w3.org/2000/svg">
<mask id="mask0" mask-type="alpha" maskUnits="userSpaceOnUse" x="0" y="0" width="254" height="700">
<rect x="0.255341" y="0.621338" width="253.11" height="698.6" fill="#C4C4C4"/>
</mask>
<g mask="url(#mask0)">
<mask id="mask1" mask-type="alpha" maskUnits="userSpaceOnUse" x="-358" y="0" width="612" height="700">
<rect x="-357.426" y="0.621338" width="610.791" height="698.6" fill="#C4C4C4"/>
</mask>
<g mask="url(#mask1)">
<path d="M-412.245 465.704L-374.8 -22.6975L78.5964 -33.1436C150.264 -29.2777 286.818 -18.8695 259.698 -8.16399C225.797 5.21789 227.581 147.066 233.826 164.908C240.071 182.751 253.522 305.095 253.522 331.077C253.522 370.172 236.503 490.534 227.581 558.335C220.444 612.577 220.444 675.501 221.336 700.183L202.602 725.163H-358.52L-412.245 465.704Z" fill="#FF45E5"/>
<path d="M124.547 187.492C108.178 243.525 104.372 302.298 101.748 360.322C100.449 389.03 99.4473 417.757 97.3341 446.413C96.2807 460.715 94.9495 474.992 93.1465 489.216C93.0366 490.083 92.9203 490.949 92.8104 491.815C92.4291 494.803 93.1788 489.197 92.7652 492.178C92.5261 493.904 92.2869 495.63 92.0349 497.35C91.5373 500.79 91.001 504.223 90.4387 507.656C89.269 514.775 87.9507 521.875 86.4644 528.935C83.2655 544.117 79.2847 559.137 74.2893 573.827C72.9968 577.642 71.6333 581.431 70.1986 585.194C69.5847 586.81 68.9578 588.42 68.318 590.03C67.9949 590.832 67.6718 591.634 67.3487 592.435C67.1225 592.991 65.675 596.625 66.8576 593.657C63.859 601.203 60.169 608.548 56.4144 615.738C53.9328 620.484 54.5661 625.921 58.2303 629.84C59.0704 630.738 59.8911 631.65 60.6795 632.588C61.0285 633.008 61.3646 633.435 61.7135 633.855C62.6247 634.954 60.3952 631.999 61.623 633.777C62.9414 635.685 64.2274 637.598 65.3777 639.622C65.9851 640.689 66.5603 641.769 67.1096 642.868C67.3551 643.359 67.5878 643.851 67.8205 644.342C67.8786 644.472 68.9449 646.916 68.2276 645.196C67.5814 643.65 68.2922 645.396 68.4085 645.7C68.6541 646.334 68.8932 646.974 69.1194 647.62C69.5265 648.778 69.9013 649.948 70.2438 651.125C70.8901 653.349 71.4264 655.612 71.84 657.894C71.9628 658.567 72.0533 659.239 72.1761 659.912C72.454 661.515 71.9564 657.629 72.0791 659.252C72.1696 660.474 72.3183 661.69 72.3894 662.918C72.5186 665.233 72.525 667.548 72.4023 669.863C72.3376 671.091 72.2213 672.307 72.105 673.529C71.8853 675.759 72.4217 671.796 72.1373 673.27C72.0081 673.936 71.9111 674.615 71.7819 675.287C70.903 680.001 72.0145 684.482 75.9501 687.521C79.4915 690.256 84.9457 690.96 88.8684 688.432C96.4681 683.525 104.074 678.617 111.674 673.71C105.839 670.36 100.003 667.011 94.174 663.662C92.3645 685.613 101.586 708.457 117.93 723.166C122.453 727.24 129.975 727.964 134.383 723.166C138.461 718.724 139.217 711.056 134.383 706.704C132.664 705.153 131.016 703.53 129.478 701.797C128.754 700.982 128.069 700.135 127.378 699.301C126.369 698.086 128.586 701.027 127.714 699.708C127.41 699.256 127.074 698.823 126.77 698.376C125.452 696.476 124.243 694.497 123.145 692.46C122.628 691.503 122.137 690.527 121.671 689.544C121.49 689.163 121.297 688.335 120.993 688.057C121.717 688.723 121.762 689.971 121.07 688.193C119.435 683.99 118.317 679.652 117.548 675.21C117.27 673.613 117.71 675.261 117.632 675.876C117.697 675.391 117.51 674.744 117.464 674.253C117.367 673.167 117.296 672.08 117.258 670.994C117.167 668.544 117.251 666.093 117.451 663.649C118.169 654.914 107.008 649.043 99.9513 653.601C92.3516 658.509 84.7454 663.416 77.1456 668.324C82.839 672.707 88.5388 677.085 94.2321 681.469C98.814 656.957 91.7958 631.656 74.7093 613.371C75.3168 618.072 75.9242 622.773 76.5252 627.473C103.699 575.437 114.524 517.568 119.571 459.577C124.586 402.019 124.218 344.119 129.898 286.612C130.68 278.711 131.378 270.732 132.625 262.883C132.127 266.045 132.606 263.051 132.683 262.476C132.845 261.312 133.006 260.148 133.174 258.984C133.465 256.947 133.769 254.911 134.086 252.88C134.712 248.82 135.384 244.766 136.102 240.718C138.919 224.858 142.5 209.133 147.017 193.667C148.723 187.829 144.949 180.729 138.894 179.352C132.631 177.942 126.376 181.24 124.547 187.492Z" fill="#690D44"/>
<g opacity="0.22">
<g opacity="0.22">
<path opacity="0.22" d="M-107.381 38.0885C-104.88 42.6986 -102.611 47.4121 -100.569 52.2421C-101.642 49.6946 -102.721 47.147 -103.794 44.5995C-97.8421 58.9664 -94.0874 74.0575 -91.9613 89.4459C-92.3426 86.6075 -92.7239 83.7755 -93.1052 80.937C-87.8965 120.178 -92.782 159.877 -97.4931 198.911C-102.812 242.981 -106.295 287.084 -107.206 331.472C-108.143 377.204 -106.889 422.955 -104.505 468.629C-102.127 514.161 -98.6176 559.622 -94.9986 605.069C-91.8579 644.465 -87.6057 691.439 -49.9043 714.088C-44.7732 717.172 -39.0023 719.5 -33.2637 721.194C-25.3926 723.515 -15.6538 722.086 -8.61625 717.968C-1.9794 714.082 4.34725 706.472 6.08563 698.842C7.95325 690.65 7.54613 681.449 2.86092 674.182C-1.70798 667.095 -8.04756 661.897 -16.2548 659.472C-17.8574 659 -19.4148 658.444 -20.9593 657.797C-18.4132 658.871 -15.867 659.951 -13.3208 661.024C-16.2612 659.711 -18.9689 658.082 -21.5151 656.116C-19.3567 657.784 -17.1983 659.453 -15.0398 661.121C-17.7282 658.948 -20.1063 656.498 -22.2453 653.789C-20.5781 655.948 -18.9108 658.108 -17.2435 660.267C-20.4424 656.078 -22.9562 651.48 -25.0371 646.644C-23.9643 649.191 -22.8851 651.739 -21.8124 654.286C-26.0323 644.161 -28.3135 633.383 -29.787 622.546C-29.4057 625.385 -29.0244 628.217 -28.6431 631.055C-31.1699 611.768 -32.0682 592.19 -33.561 572.805C-35.1895 551.72 -36.7404 530.629 -38.1169 509.525C-40.8957 466.916 -42.9508 424.255 -43.4355 381.555C-43.9201 338.959 -42.8409 296.324 -39.3448 253.857C-36.1718 215.347 -29.7288 177.134 -27.5704 138.547C-25.0177 92.9633 -30.0777 46.4552 -52.1467 5.78571C-55.9078 -1.14556 -63.7531 -6.85481 -71.2624 -8.92385C-78.9203 -11.0317 -89.1179 -10.0812 -95.9099 -5.69745C-110.844 3.9365 -115.937 22.3315 -107.381 38.0885Z" fill="#690D44"/>
</g>
</g>
<g opacity="0.22">
<g opacity="0.22">
<path opacity="0.22" d="M122.298 199.551C128.683 259.327 129.484 319.671 124.663 379.596C123.293 396.672 121.458 413.703 119.183 430.682C119.564 427.843 119.946 425.011 120.327 422.173C117.716 441.551 114.537 460.844 110.756 480.028C107.015 499.018 102.452 517.821 98.2387 536.707C93.4565 558.141 89.4628 579.84 87.7309 601.752C86.1864 621.253 87.4659 640.767 91.1107 659.989C92.8555 669.184 95.4469 678.21 99.0141 686.867C103.564 697.904 108.41 708.456 115.5 718.103C117.509 721.834 120.256 724.828 123.739 727.084C126.828 729.916 130.454 731.824 134.615 732.813C142.273 734.921 152.471 733.97 159.263 729.586C166.093 725.183 172.103 718.621 173.965 710.461C175.761 702.573 175.748 692.609 170.74 685.801C165.531 678.714 161.247 671.052 157.796 662.964C158.869 665.511 159.948 668.059 161.02 670.606C156.219 659.136 153.175 647.064 151.469 634.76C151.85 637.598 152.232 640.43 152.613 643.269C150.093 624.357 150.849 605.302 153.369 586.435C152.988 589.273 152.607 592.105 152.225 594.944C155.67 569.734 162.048 545.08 167.573 520.278C173.124 495.365 177.68 470.226 181.228 444.945C188.647 392.12 192.524 338.991 191.613 285.636C191.122 256.876 189.332 228.149 186.275 199.551C186.443 195.141 185.526 191.036 183.522 187.221C182.23 183.251 180.026 179.818 176.905 176.921C171.354 171.367 162.255 167.19 154.287 167.546C146.015 167.914 137.433 170.636 131.668 176.921C126.279 182.792 121.413 191.268 122.298 199.551Z" fill="#690D44"/>
</g>
</g>
<g opacity="0.39">
<g opacity="0.39">
<path opacity="0.39" d="M99.1433 220.112C98.6004 289.561 98.0512 359.003 97.5083 428.451C96.9655 497.544 96.4226 566.637 95.8798 635.724C95.5761 674.699 95.2659 713.675 94.9621 752.65C94.904 760.318 98.3549 768.498 103.764 773.909C108.979 779.127 117.529 783.052 125.012 782.716C132.786 782.367 140.845 779.813 146.26 773.909C151.682 768 154.998 760.816 155.062 752.65C155.605 683.201 156.154 613.759 156.697 544.311C157.24 475.218 157.783 406.125 158.326 337.039C158.629 298.063 158.94 259.088 159.243 220.112C159.302 212.444 155.851 204.265 150.442 198.853C145.226 193.635 136.677 189.71 129.193 190.046C121.419 190.396 113.361 192.95 107.945 198.853C102.523 204.762 99.2014 211.946 99.1433 220.112Z" fill="#690D44"/>
</g>
</g>
<path d="M243.913 10.3955C227.04 53.5996 226.329 100.948 231.073 146.525C236.197 195.736 247.397 244.184 250.447 293.634C253.368 340.95 249.368 388.37 243.448 435.311C237.496 482.524 229.567 529.478 224.468 576.801C219.434 623.542 217.192 670.852 222.736 717.651C223.376 723.043 224.126 728.429 224.959 733.796C225.153 735.024 227.021 734.5 226.827 733.278C219.583 686.777 220.474 639.525 224.804 592.784C229.186 545.461 236.96 498.552 243.28 451.475C249.503 405.161 254.408 358.472 253.174 311.673C251.894 262.954 241.936 215.288 235.486 167.132C229.276 120.733 226.736 72.3955 240.243 26.9866C241.858 21.5489 243.72 16.1953 245.781 10.9128C246.233 9.74895 244.359 9.24463 243.913 10.3955Z" fill="black"/>
<path d="M146.332 403.785C142.81 425.594 139.294 447.396 135.772 469.205C132.25 491.014 128.735 512.816 125.213 534.625C123.242 546.852 121.264 559.072 119.293 571.299C119.099 572.521 120.967 573.045 121.161 571.816C124.683 550.007 128.198 528.205 131.72 506.396C135.242 484.587 138.758 462.784 142.28 440.976C144.251 428.749 146.228 416.529 148.199 404.302C148.4 403.08 146.532 402.556 146.332 403.785Z" fill="black"/>
<path d="M227.111 105.086C228.837 120.307 227.092 135.792 222.349 150.347C217.638 164.804 209.98 178.343 199.905 189.736C194.224 196.163 187.788 201.904 180.705 206.741C179.684 207.439 180.647 209.12 181.681 208.415C194.528 199.635 205.288 187.997 213.327 174.684C221.315 161.448 226.633 146.571 228.714 131.24C229.89 122.57 230.039 113.776 229.05 105.08C228.908 103.858 226.969 103.845 227.111 105.086Z" fill="black"/>
<path d="M234.886 475.877C229.832 486.572 224.294 497.033 218.277 507.21C212.261 517.394 205.779 527.299 198.858 536.882C194.955 542.28 190.916 547.576 186.734 552.761C185.959 553.725 187.322 555.108 188.104 554.132C195.575 544.86 202.625 535.246 209.211 525.327C215.776 515.435 221.89 505.238 227.512 494.777C230.685 488.88 233.696 482.899 236.559 476.847C237.089 475.729 235.415 474.746 234.886 475.877Z" fill="black"/>
<path d="M46.889 133.2C42.8564 162.198 40.3878 191.378 38.2488 220.571C36.0904 250.087 34.2421 279.629 31.3664 309.087C28.7103 336.269 25.1496 363.373 19.6307 390.135C14.4544 415.248 7.60426 440.057 -1.66276 463.98C-10.9039 487.833 -22.6137 510.786 -37.251 531.793C-39.0992 534.451 -40.9992 537.069 -42.9379 539.655C-43.6875 540.658 -42.0008 541.621 -41.2641 540.632C-26.0194 520.258 -13.6698 497.88 -3.80827 474.442C6.16961 450.713 13.6272 425.981 19.2947 400.888C25.156 374.954 29.0658 348.625 31.9545 322.206C35.1727 292.787 37.1566 263.251 39.2504 233.735C41.3443 204.226 43.5544 174.71 47.2314 145.349C47.7161 141.469 48.2266 137.59 48.7695 133.717C48.931 132.495 47.0634 131.971 46.889 133.2Z" fill="black"/>
<path d="M132.916 195.775C129.051 232.779 125.187 269.776 121.322 306.779C117.458 343.782 113.593 380.779 109.729 417.783C105.864 454.786 102 491.783 98.1353 528.787C94.8718 560.016 90.6841 591.433 91.744 622.896C92.6875 650.873 98.1482 679.594 114.149 703.097C116.055 705.896 118.098 708.586 120.25 711.205C121.044 712.168 122.408 710.791 121.62 709.834C103.066 687.275 95.7506 658.444 94.0058 629.782C92.1575 599.451 95.8605 569.133 99.0077 539.015C102.84 502.355 106.666 465.694 110.498 429.033C114.33 392.372 118.156 355.712 121.988 319.051C125.801 282.558 129.607 246.072 133.42 209.58C133.898 204.976 134.383 200.372 134.861 195.769C134.984 194.534 133.045 194.54 132.916 195.775Z" fill="black"/>
</g>
</g>
</svg>
