<svg width="254" height="700" viewBox="0 0 254 700" fill="none" xmlns="http://www.w3.org/2000/svg">
<mask id="mask0" mask-type="alpha" maskUnits="userSpaceOnUse" x="0" y="0" width="254" height="700">
<rect x="0.377151" y="0.621338" width="253.11" height="698.6" fill="#C4C4C4"/>
</mask>
<g mask="url(#mask0)">
<mask id="mask1" mask-type="alpha" maskUnits="userSpaceOnUse" x="0" y="0" width="569" height="701">
<rect x="0.377151" y="0.621338" width="568.359" height="700" fill="#C4C4C4"/>
</mask>
<g mask="url(#mask1)">
<path d="M23.9953 202.444C15.0819 81.7706 37.994 12.1774 50.5642 -7.53491H578.712V710.68C392.092 720.107 16.796 733.306 8.56829 710.68C0.340577 688.053 5.14008 637.83 8.56829 615.546C30.509 551.096 42.8506 452.705 46.2789 411.566C42.8506 362.2 29.9947 251.582 23.9953 202.444Z" fill="#FF45E5"/>
<path d="M127.274 31.8314C129.039 38.2454 130.383 44.7758 131.287 51.3709C131.003 49.276 131.552 53.7309 131.591 54.1059C131.759 55.6641 131.908 57.2288 132.044 58.7935C132.328 62.1299 132.528 65.4662 132.677 68.809C133.252 81.8956 132.942 95.0017 132.729 108.095C132.302 134.533 132.283 161.844 140.69 187.229C141.673 190.203 142.797 193.119 144.005 196.009C144.858 198.04 145.718 200.063 146.61 202.074C146.933 202.805 147.256 203.536 147.579 204.266C147.683 204.505 148.826 207.143 148.419 206.174C147.954 205.068 148.878 207.331 148.962 207.544C149.246 208.281 149.524 209.025 149.789 209.769C150.313 211.256 150.784 212.756 151.166 214.282C151.36 215.038 151.463 215.827 151.676 216.577C152.174 218.368 151.702 215.122 151.741 216.984C151.767 218.142 151.877 219.293 151.844 220.456C151.825 221.303 151.508 222.428 151.65 223.243C151.612 223.03 152.193 220.295 151.767 222.183C151.67 222.622 151.599 223.069 151.495 223.515C151.301 224.394 151.062 225.26 150.797 226.12C150.629 226.657 149.453 229.702 150.222 227.879C151.036 225.933 149.712 228.868 149.518 229.237C149.098 230.045 148.652 230.834 148.187 231.61C147.715 232.399 147.217 233.168 146.694 233.931C146.435 234.312 146.157 234.688 145.892 235.069C144.82 236.608 145.511 235.198 146.228 234.681C144.839 235.677 143.663 237.778 142.493 239.058C140.988 240.701 139.417 242.285 137.814 243.83C134.777 246.766 131.611 249.565 128.438 252.352C122.059 257.945 115.558 263.467 109.897 269.809C103.467 277.006 98.0193 285.062 95.2211 294.386C93.4374 300.334 92.9269 306.774 93.3793 312.949C93.6701 316.925 94.2646 320.889 94.8721 324.826C95.1306 326.507 95.4149 328.182 95.6799 329.857C96.0482 332.165 96.1968 333.141 96.3132 334.318C96.6234 337.499 96.7849 340.68 96.7074 343.874C96.6686 345.426 96.5782 346.972 96.4489 348.517C96.3843 349.286 96.3002 350.056 96.2162 350.825C96.3972 349.144 96.1839 351.045 96.0741 351.75C95.0401 358.099 93.3276 364.326 91.2467 370.41C90.2192 373.404 89.1012 376.371 87.925 379.313C87.6278 380.05 87.324 380.787 87.0267 381.524C86.9427 381.725 86.1737 383.568 86.8135 382.055C86.1156 383.71 85.3853 385.359 84.6615 387.007C81.9925 393.04 79.2073 399.014 76.5383 405.04C65.3843 430.205 57.3193 456.365 52.214 483.412C47.0829 510.607 44.4656 538.248 43.2378 565.882C42.0358 592.851 42.1328 619.858 42.3202 646.846C42.3654 653.396 42.2297 659.771 44.414 666.088C46.6564 672.573 50.1009 678.477 54.8507 683.455C64.3051 693.361 78.3995 697.874 91.8541 696.07C98.4651 695.178 104.792 693.096 110.395 689.384C104.559 686.035 98.7237 682.686 92.8946 679.336C93.1919 687.71 93.4892 696.083 93.7864 704.456C93.9997 710.534 98.9822 716.385 105.419 716.094C111.539 715.823 117.284 710.973 117.051 704.456C116.754 696.083 116.456 687.71 116.159 679.336C115.862 671.002 106.336 664.2 98.659 669.289C97.5152 670.045 96.3455 670.711 95.1435 671.371C93.2371 672.412 94.6524 671.623 95.1241 671.442C94.4908 671.687 93.8446 671.914 93.1983 672.121C91.8929 672.535 90.5746 672.825 89.2369 673.11C88.623 673.239 87.1301 673.162 89.295 673.116C88.442 673.136 87.5955 673.239 86.7424 673.252C85.5469 673.272 84.3578 673.22 83.1687 673.136C80.8746 672.974 82.781 673.045 83.2204 673.149C82.5548 673 81.8827 672.89 81.2236 672.722C79.8988 672.392 78.6127 671.966 77.3332 671.5C79.3301 672.224 77.7403 671.668 77.3138 671.429C76.5706 671.015 75.821 670.634 75.0972 670.181C74.535 669.832 73.9986 669.437 73.4428 669.082C72.0211 668.177 74.6061 670.291 73.4558 669.056C72.5575 668.086 71.5171 667.258 70.6253 666.269C70.4055 666.023 69.0873 664.401 69.9532 665.532C70.8192 666.664 69.5913 664.97 69.4103 664.692C68.5832 663.437 67.8853 662.131 67.1938 660.799C66.9353 660.301 66.5411 658.814 67.1809 660.838C66.9805 660.204 66.7285 659.59 66.5282 658.956C66.1275 657.689 65.8367 656.403 65.5653 655.103C65.5136 654.87 65.3649 653.267 65.4813 654.683C65.6105 656.241 65.4877 654.127 65.4683 653.758C65.4037 652.251 65.5459 650.79 65.5911 649.29C65.9983 636.055 65.4166 622.729 65.4942 609.481C65.5717 596.174 65.8043 582.861 66.3342 569.561C66.8642 556.306 67.6979 543.058 68.9774 529.855C70.3216 515.986 71.5881 506.333 74.0826 492.58C76.422 479.681 79.3624 466.885 83.033 454.296C84.9007 447.902 86.9492 441.565 89.2046 435.3C90.2321 432.442 91.3048 429.604 92.4163 426.778C93.935 422.918 94.2258 422.226 95.654 418.968C106.323 394.559 119.752 370.048 119.991 342.704C120.056 335.456 118.854 328.286 117.704 321.147C117.432 319.473 117.148 317.798 116.928 316.117C117.135 317.708 116.883 315.626 116.87 315.445C116.792 314.611 116.702 313.776 116.644 312.936C116.527 311.274 116.463 309.6 116.489 307.931C116.502 307.097 116.553 306.27 116.599 305.436C116.637 305.022 116.676 304.602 116.708 304.188C116.618 304.912 116.618 304.99 116.708 304.433C117.057 302.662 117.497 300.91 118.085 299.196C118.24 298.744 118.414 298.304 118.57 297.851C119.229 295.963 118.382 298.53 118.214 298.653C118.86 298.181 119.397 296.19 119.797 295.446C120.663 293.862 121.62 292.33 122.641 290.842C122.899 290.467 124.948 288.01 123.675 289.362C122.492 290.623 123.617 289.439 123.907 289.09C124.302 288.612 124.696 288.133 125.097 287.661C135.869 275.053 150.08 265.936 160.853 253.335C166.656 246.539 171.761 238.839 173.829 230.013C176.841 217.146 173.267 205.385 168.116 193.591C167.477 192.13 166.83 190.669 166.178 189.214C166.087 189.007 165.305 187.171 165.945 188.71C165.641 187.985 165.357 187.255 165.073 186.531C163.942 183.634 162.934 180.686 162.042 177.705C160.213 171.595 158.856 165.355 157.88 159.051C157.764 158.288 157.647 157.519 157.538 156.756C157.253 154.803 157.686 158.359 157.499 156.394C157.37 155.043 157.182 153.698 157.053 152.34C156.704 148.848 156.445 145.35 156.258 141.846C155.922 135.561 155.819 129.257 155.812 122.966C155.806 96.5664 157.363 70.2443 153.524 44.0128C152.62 37.8122 151.34 31.6827 149.679 25.6372C148.064 19.7728 141.349 15.5701 135.372 17.5098C129.4 19.456 125.542 25.5402 127.274 31.8314Z" fill="#690D44"/>
<path d="M252.67 544.177C250.945 559.578 249.872 575.051 249.465 590.549C249.058 606.041 249.303 621.553 250.221 637.025C250.731 645.728 251.462 654.418 252.386 663.088C252.392 665.19 252.922 667.149 253.975 668.959C255.009 670.705 256.399 672.102 258.15 673.136C259.966 674.19 261.924 674.72 264.018 674.727C266.118 674.72 268.076 674.19 269.886 673.136C273.983 671.287 278.08 669.438 282.177 667.589C276.484 663.205 270.784 658.828 265.091 654.444C262.338 668.015 260.793 681.91 260.677 695.76C260.567 709.493 261.892 723.246 264.36 736.759C265.653 743.846 267.333 750.854 269.382 757.76C270.222 760.605 272.154 763.21 274.726 764.717C277.221 766.178 280.891 766.792 283.689 765.887C286.507 764.976 289.221 763.23 290.643 760.54C292.09 757.799 292.717 754.617 291.812 751.572C288.872 741.654 286.707 731.515 285.318 721.261C285.453 722.289 285.596 723.323 285.731 724.358C283.89 710.534 283.45 696.529 284.478 682.621C284.768 678.639 285.189 674.669 285.712 670.705C285.576 671.74 285.434 672.768 285.298 673.802C285.893 669.393 286.636 665.002 287.521 660.638C287.929 658.621 288.077 656.461 287.521 654.45C286.849 652 285.337 649.937 283.353 648.405C281.679 647.112 279.941 646.394 277.854 646.116C276.826 645.838 275.792 645.838 274.758 646.116C273.207 646.187 271.766 646.646 270.435 647.5C266.338 649.349 262.241 651.198 258.144 653.047C263.979 656.396 269.815 659.746 275.644 663.095C273.996 647.687 272.994 632.208 272.665 616.71C272.328 601.218 272.658 585.707 273.647 570.24C274.203 561.538 274.972 552.854 275.941 544.19C276.251 541.423 274.416 537.847 272.535 535.959C270.519 533.942 267.21 532.422 264.309 532.552C261.297 532.687 258.182 533.677 256.082 535.959C255.475 536.741 254.867 537.53 254.266 538.313C253.206 540.117 252.677 542.076 252.67 544.177Z" fill="#690D44"/>
<g opacity="0.22">
<g opacity="0.22">
<path opacity="0.22" d="M135.798 59.854C139.404 66.85 142.745 73.9688 145.828 81.2104C144.755 78.6629 143.676 76.1154 142.603 73.5679C153.46 99.3338 160.846 126.438 164.607 154.144C164.226 151.305 163.845 148.473 163.464 145.635C167.199 173.923 166.934 202.437 163.192 230.711C163.573 227.873 163.955 225.041 164.336 222.202C155.269 289.084 128.78 351.698 106.556 414.914C96.1321 444.566 86.7424 474.573 80.4933 505.408C73.8758 538.041 69.811 571.766 71.6528 605.097C73.8048 644.001 83.0976 681.949 102.006 716.191C105.839 723.129 113.561 728.819 121.122 730.901C128.78 733.009 138.978 732.058 145.77 727.675C160.62 718.092 165.906 699.574 157.247 683.882C153.912 677.843 150.894 671.649 148.186 665.3C149.259 667.847 150.338 670.395 151.411 672.942C143.889 655.058 139.036 636.249 136.406 617.039C136.787 619.878 137.168 622.71 137.549 625.548C133.905 597.972 134.803 570.04 138.474 542.522C138.092 545.36 137.711 548.192 137.33 551.03C146.416 484.362 172.278 422.291 194.425 359.263C217.915 292.414 236.514 221.724 228.035 150.303C225.509 129.05 221.767 108.082 215.544 87.5791C209.269 66.9146 200.926 46.7221 191.045 27.5318C187.484 20.6135 179.27 14.846 171.929 12.8222C164.271 10.7144 154.074 11.6649 147.282 16.0486C140.451 20.4518 134.441 27.0146 132.58 35.1743C130.602 43.8513 131.707 51.9141 135.798 59.854Z" fill="#690D44"/>
</g>
</g>
<g opacity="0.39">
<g opacity="0.39">
<path opacity="0.39" d="M125.82 68.4923C129.498 91.0124 133.11 113.539 136.16 136.15C135.805 133.486 135.443 130.822 135.087 128.158C140.619 169.487 144.303 211.256 142.267 252.979C141.692 264.812 140.632 276.612 139.062 288.353C139.417 285.689 139.779 283.026 140.135 280.362C136.096 309.865 128.14 338.198 117.381 365.929C106.679 393.506 94.5233 420.487 85.728 448.768C68.0987 505.428 60.6024 566.018 63.7625 625.27C65.6107 659.894 70.8129 694.557 79.5436 728.121C81.4306 735.375 86.9236 742.326 93.3536 746.089C99.7966 749.858 109.29 751.455 116.508 749.121C132.179 744.046 141.737 728.45 137.498 712.137C132.658 693.516 128.948 674.63 126.37 655.562C126.725 658.226 127.087 660.89 127.443 663.554C121.794 621.016 121.82 577.85 127.449 535.312C127.094 537.976 126.732 540.64 126.376 543.304C130.557 512.327 137.653 481.763 147.786 452.189C158.158 421.916 171.988 392.969 182.398 362.716C203.97 300.05 205.992 232.606 199.724 167.172C196.04 128.753 189.979 90.5857 183.768 52.509C182.631 45.526 175.8 37.961 169.958 34.5407C163.515 30.7711 154.022 29.1741 146.804 31.5082C139.534 33.8618 132.516 38.3684 128.845 45.3255C127.837 47.7178 126.822 50.1166 125.814 52.509C124.392 57.8367 124.392 63.1645 125.82 68.4923Z" fill="#690D44"/>
</g>
</g>
<g opacity="0.39">
<g opacity="0.39">
<path opacity="0.39" d="M245.458 592.838C248.495 603.532 251.533 614.227 254.576 624.915C257.614 635.609 260.651 646.303 263.695 656.991C266.732 667.685 269.769 678.38 272.813 689.068C275.85 699.762 278.888 710.456 281.932 721.144C284.969 731.838 288.006 742.533 291.05 753.221C291.425 754.54 291.8 755.852 292.174 757.171C293.105 761.083 294.895 764.491 297.551 767.394C299.671 770.665 302.482 773.245 305.985 775.14C309.435 777.338 313.158 778.528 317.158 778.709C321.152 779.601 325.145 779.426 329.139 778.172C331.53 777.163 333.928 776.148 336.319 775.14C340.836 772.469 344.429 768.874 347.098 764.355C348.106 761.962 349.121 759.564 350.129 757.171C351.557 751.844 351.557 746.516 350.129 741.188C347.092 730.494 344.054 719.799 341.01 709.111C337.973 698.417 334.936 687.723 331.892 677.035C328.855 666.341 325.818 655.646 322.774 644.958C319.73 634.27 316.699 623.57 313.655 612.882C310.618 602.187 307.581 591.493 304.537 580.805C304.162 579.486 303.787 578.174 303.412 576.855C302.482 572.943 300.692 569.535 298.036 566.632C295.916 563.361 293.105 560.781 289.602 558.886C286.151 556.688 282.429 555.498 278.429 555.317C274.435 554.425 270.442 554.6 266.448 555.854C264.057 556.863 261.659 557.878 259.268 558.886C254.751 561.557 251.158 565.152 248.489 569.671C247.481 572.064 246.466 574.462 245.458 576.855C244.03 582.182 244.03 587.51 245.458 592.838Z" fill="#690D44"/>
</g>
</g>
<path d="M37.997 24.7451C22.3969 67.3608 18.3967 113.067 19.9348 158.166C21.5439 205.288 29.1048 251.867 35.3346 298.524C41.7581 346.642 46.7859 395.413 42.1394 443.938C37.7709 489.574 25.1434 533.838 14.9135 578.374C5.0713 621.216 -2.90327 665.358 1.73024 709.448C2.28601 714.737 3.0292 720 3.93393 725.243C4.14719 726.472 6.01482 725.948 5.80157 724.726C-1.8628 680.171 4.47674 635.04 14.0023 591.293C23.5795 547.319 36.291 503.953 42.3075 459.262C48.6794 411.914 45.4482 364.177 39.645 316.945C33.8805 270.042 25.7574 223.392 22.7653 176.186C19.896 130.919 21.5697 84.7213 34.6302 41C36.2135 35.6981 37.9712 30.4608 39.8711 25.2624C40.2977 24.0856 38.4236 23.5813 37.997 24.7451Z" fill="black"/>
<path d="M173.609 313.841C168.097 325.893 162.901 338.094 158.035 350.424C153.156 362.787 148.607 375.285 144.393 387.893C140.199 400.443 136.341 413.103 132.826 425.86C129.291 438.675 126.098 451.581 123.255 464.571C120.411 477.554 117.917 490.614 115.778 503.74C115.513 505.35 115.261 506.96 115.002 508.57C114.809 509.792 116.676 510.316 116.87 509.087C118.919 496.013 121.31 482.998 124.056 470.047C126.796 457.103 129.885 444.229 133.317 431.447C136.742 418.664 140.516 405.978 144.619 393.396C148.723 380.813 153.163 368.347 157.932 356.004C162.714 343.629 167.826 331.376 173.267 319.279C173.939 317.792 174.611 316.305 175.29 314.824C175.794 313.692 174.126 312.71 173.609 313.841Z" fill="black"/>
<path d="M24.3483 78.7921C24.5098 90.9024 25.8282 102.993 28.2645 114.858C30.7138 126.781 34.2939 138.465 38.9597 149.708C41.5705 156.013 44.511 162.174 47.7809 168.162C48.3819 169.261 50.0557 168.278 49.4547 167.185C43.6902 156.614 38.9404 145.506 35.2827 134.035C31.6573 122.669 29.0787 110.953 27.6441 99.101C26.8298 92.3637 26.3775 85.5811 26.287 78.7921C26.2741 77.5442 24.3353 77.5377 24.3483 78.7921Z" fill="black"/>
<path d="M133.304 16.6758C148.516 64.5676 153.802 114.955 151.521 165.058C149.214 215.775 139.501 265.937 125.814 314.74C111.965 364.119 92.8299 411.526 75.8985 459.864C60.0916 504.981 46.805 552.065 47.7162 600.293C48.5046 642.01 59.8202 684.141 85.3659 717.659C88.526 721.81 91.8864 725.793 95.4084 729.634C96.255 730.558 97.625 729.181 96.7784 728.263C67.2131 696.025 52.5888 653.525 50.0362 610.289C47.1992 562.249 59.1675 515.049 74.4769 469.905C90.7879 421.793 110.246 374.884 124.573 326.087C138.551 278.461 148.897 229.56 152.562 179.988C156.18 130.997 153.007 81.3397 140.328 33.7777C138.751 27.8616 137.02 21.9971 135.171 16.1586C134.797 14.9754 132.929 15.4861 133.304 16.6758Z" fill="black"/>
</g>
</g>
</svg>
