<svg width="569" height="700" viewBox="0 0 569 700" fill="none" xmlns="http://www.w3.org/2000/svg">
<mask id="mask0" mask-type="alpha" maskUnits="userSpaceOnUse" x="0" y="0" width="569" height="700">
<rect x="0.263428" width="568.359" height="700" fill="#C4C4C4"/>
</mask>
<g mask="url(#mask0)">
<path d="M23.8816 201.823C14.9682 81.1493 37.8803 11.5561 50.4505 -8.15625H578.598V710.058C391.979 719.486 16.6823 732.685 8.45457 710.058C0.226853 687.432 5.02635 637.208 8.45457 614.925C30.3953 550.474 42.7369 452.084 46.1651 410.945C42.7369 361.579 29.881 250.961 23.8816 201.823Z" fill="#FF45E5"/>
<path d="M127.161 31.2101C128.925 37.6241 130.269 44.1545 131.174 50.7495C130.889 48.6546 131.439 53.1095 131.478 53.4845C131.646 55.0428 131.794 56.6075 131.93 58.1722C132.214 61.5085 132.415 64.8448 132.563 68.1876C133.138 81.2743 132.828 94.3803 132.615 107.473C132.188 133.912 132.169 161.223 140.577 186.608C141.559 189.582 142.683 192.498 143.892 195.388C144.745 197.418 145.604 199.442 146.496 201.453C146.819 202.184 147.142 202.914 147.465 203.645C147.569 203.884 148.713 206.522 148.305 205.552C147.84 204.447 148.764 206.71 148.848 206.923C149.133 207.66 149.411 208.404 149.675 209.147C150.199 210.634 150.671 212.134 151.052 213.66C151.246 214.417 151.349 215.206 151.563 215.956C152.06 217.747 151.588 214.501 151.627 216.363C151.653 217.52 151.763 218.671 151.731 219.835C151.711 220.682 151.394 221.807 151.537 222.622C151.498 222.408 152.08 219.673 151.653 221.561C151.556 222.001 151.485 222.447 151.382 222.893C151.188 223.773 150.949 224.639 150.684 225.499C150.516 226.036 149.339 229.081 150.108 227.258C150.923 225.312 149.598 228.247 149.404 228.616C148.984 229.424 148.538 230.213 148.073 230.989C147.601 231.777 147.104 232.547 146.58 233.31C146.322 233.691 146.044 234.066 145.779 234.448C144.706 235.987 145.397 234.577 146.115 234.06C144.725 235.055 143.549 237.157 142.38 238.437C140.874 240.079 139.303 241.663 137.701 243.209C134.663 246.144 131.497 248.944 128.324 251.731C121.946 257.323 115.444 262.845 109.783 269.188C103.353 276.384 97.9055 284.441 95.1073 293.764C93.3237 299.713 92.8132 306.153 93.2656 312.328C93.5564 316.304 94.1509 320.267 94.7584 324.205C95.0168 325.886 95.3012 327.561 95.5661 329.235C95.9345 331.544 96.0831 332.52 96.1994 333.697C96.5096 336.878 96.6712 340.059 96.5936 343.253C96.5549 344.805 96.4645 346.35 96.3352 347.896C96.2706 348.665 96.1865 349.434 96.1025 350.204C96.2834 348.523 96.0702 350.424 95.9603 351.128C94.9264 357.478 93.2139 363.704 91.133 369.789C90.1055 372.782 88.9875 375.75 87.8113 378.692C87.514 379.429 87.2103 380.166 86.913 380.903C86.829 381.104 86.06 382.946 86.6998 381.433C86.0019 383.089 85.2716 384.737 84.5478 386.386C81.8788 392.419 79.0936 398.393 76.4246 404.419C65.2706 429.584 57.2056 455.744 52.1003 482.79C46.9692 509.985 44.3519 537.626 43.1241 565.261C41.9221 592.229 42.019 619.237 42.2065 646.225C42.2517 652.775 42.116 659.15 44.3003 665.467C46.5427 671.952 49.9872 677.855 54.737 682.834C64.1914 692.739 78.2858 697.252 91.7404 695.448C98.3514 694.556 104.678 692.474 110.281 688.763C104.445 685.414 98.61 682.064 92.7809 678.715C93.0782 687.088 93.3755 695.461 93.6727 703.835C93.886 709.912 98.8685 715.764 105.305 715.473C111.425 715.201 117.17 710.352 116.937 703.835C116.64 695.461 116.343 687.088 116.045 678.715C115.748 670.381 106.223 663.579 98.5453 668.667C97.4015 669.424 96.2318 670.09 95.0298 670.749C93.1234 671.79 94.5386 671.001 95.0104 670.82C94.3771 671.066 93.7309 671.292 93.0846 671.499C91.7792 671.913 90.4609 672.204 89.1232 672.489C88.5093 672.618 87.0164 672.54 89.1813 672.495C88.3283 672.515 87.4818 672.618 86.6287 672.631C85.4332 672.65 84.2441 672.599 83.055 672.514C80.7609 672.353 82.6673 672.424 83.1067 672.527C82.4411 672.379 81.769 672.269 81.1098 672.101C79.7851 671.771 78.499 671.344 77.2195 670.879C79.2164 671.603 77.6266 671.047 77.2001 670.808C76.4569 670.394 75.7073 670.012 74.9835 669.56C74.4213 669.211 73.8849 668.816 73.3291 668.461C71.9074 667.555 74.4924 669.67 73.3421 668.435C72.4438 667.465 71.4034 666.637 70.5116 665.648C70.2918 665.402 68.9736 663.779 69.8395 664.911C70.7055 666.042 69.4776 664.348 69.2966 664.07C68.4694 662.816 67.7716 661.51 67.0801 660.178C66.8216 659.68 66.4274 658.193 67.0671 660.217C66.8668 659.583 66.6148 658.969 66.4144 658.335C66.0138 657.068 65.723 655.781 65.4516 654.482C65.3999 654.249 65.2512 652.645 65.3675 654.061C65.4968 655.62 65.374 653.505 65.3546 653.137C65.29 651.63 65.4322 650.169 65.4774 648.669C65.8846 635.433 65.3029 622.108 65.3805 608.859C65.458 595.553 65.6906 582.24 66.2205 568.94C66.7505 555.685 67.5842 542.437 68.8637 529.234C70.2079 515.365 71.4744 505.711 73.9689 491.959C76.3083 479.06 79.2487 466.264 82.9193 453.675C84.787 447.28 86.8355 440.944 89.0908 434.679C90.1184 431.821 91.1911 428.982 92.3026 426.157C93.8213 422.297 94.1121 421.605 95.5403 418.346C106.21 393.938 119.638 369.426 119.878 342.083C119.942 334.835 118.74 327.664 117.59 320.526C117.318 318.851 117.034 317.177 116.814 315.496C117.021 317.086 116.769 315.004 116.756 314.823C116.679 313.989 116.588 313.155 116.53 312.315C116.414 310.653 116.349 308.978 116.375 307.31C116.388 306.476 116.44 305.648 116.485 304.814C116.524 304.401 116.562 303.98 116.595 303.566C116.504 304.291 116.504 304.368 116.595 303.812C116.944 302.041 117.383 300.288 117.971 298.575C118.126 298.122 118.301 297.683 118.456 297.23C119.115 295.342 118.268 297.909 118.1 298.032C118.747 297.56 119.283 295.568 119.684 294.825C120.55 293.241 121.506 291.708 122.527 290.221C122.786 289.846 124.834 287.389 123.561 288.74C122.379 290.001 123.503 288.818 123.794 288.469C124.188 287.99 124.582 287.512 124.983 287.04C135.756 274.432 149.966 265.315 160.739 252.713C166.542 245.918 171.648 238.217 173.716 229.391C176.727 216.525 173.153 204.763 168.003 192.97C167.363 191.509 166.717 190.047 166.064 188.593C165.974 188.386 165.192 186.549 165.831 188.088C165.528 187.364 165.243 186.634 164.959 185.909C163.828 183.013 162.82 180.064 161.928 177.084C160.099 170.974 158.742 164.734 157.766 158.43C157.65 157.667 157.534 156.898 157.424 156.135C157.14 154.182 157.573 157.738 157.385 155.773C157.256 154.421 157.068 153.076 156.939 151.719C156.59 148.227 156.332 144.729 156.144 141.225C155.808 134.94 155.705 128.636 155.698 122.345C155.692 95.945 157.249 69.623 153.411 43.3915C152.506 37.1909 151.227 31.0613 149.566 25.0159C147.95 19.1515 141.236 14.9487 135.258 16.8884C129.287 18.8346 125.429 24.9189 127.161 31.2101Z" fill="#690D44"/>
<path d="M252.556 543.556C250.831 558.957 249.758 574.43 249.351 589.928C248.944 605.42 249.189 620.931 250.107 636.404C250.618 645.107 251.348 653.797 252.272 662.467C252.278 664.568 252.808 666.528 253.862 668.338C254.896 670.084 256.285 671.48 258.036 672.515C259.852 673.569 261.81 674.099 263.904 674.105C266.004 674.099 267.963 673.569 269.772 672.515C273.869 670.666 277.966 668.816 282.063 666.967C276.37 662.583 270.67 658.206 264.977 653.822C262.224 667.394 260.68 681.289 260.563 695.139C260.453 708.872 261.778 722.624 264.247 736.138C265.539 743.224 267.219 750.233 269.268 757.138C270.108 759.983 272.04 762.589 274.612 764.096C277.107 765.557 280.777 766.171 283.576 765.266C286.393 764.354 289.107 762.609 290.529 759.919C291.977 757.177 292.603 753.996 291.699 750.951C288.758 741.032 286.593 730.894 285.204 720.639C285.34 721.667 285.482 722.702 285.618 723.736C283.776 709.913 283.336 695.908 284.364 682C284.655 678.017 285.075 674.047 285.598 670.084C285.463 671.118 285.32 672.146 285.185 673.181C285.779 668.771 286.522 664.381 287.408 660.017C287.815 657.999 287.963 655.84 287.408 653.829C286.736 651.378 285.223 649.316 283.24 647.783C281.566 646.49 279.827 645.773 277.74 645.495C276.713 645.217 275.679 645.217 274.645 645.495C273.094 645.566 271.653 646.025 270.321 646.878C266.224 648.727 262.127 650.577 258.03 652.426C263.865 655.775 269.701 659.124 275.53 662.474C273.882 647.066 272.88 631.587 272.551 616.088C272.215 600.596 272.544 585.085 273.533 569.619C274.089 560.916 274.858 552.233 275.827 543.569C276.137 540.801 274.302 537.226 272.422 535.338C270.405 533.32 267.097 531.801 264.195 531.93C261.184 532.066 258.069 533.055 255.968 535.338C255.361 536.12 254.754 536.909 254.153 537.691C253.093 539.495 252.563 541.454 252.556 543.556Z" fill="#690D44"/>
<path d="M354.558 33.4409C357.628 80.8865 360.698 128.326 363.767 175.771C365.286 199.281 366.811 222.79 368.33 246.293C369.105 258.261 369.881 270.229 370.65 282.197C371.393 293.648 371.651 305.248 373.403 316.602C375.296 328.867 381.894 339.93 393.875 344.365C404.441 348.277 418.445 344.876 423.628 334.182C416.539 331.195 409.456 328.201 402.367 325.214C396.893 364.636 391.42 404.064 385.939 443.485C383.174 463.406 380.408 483.334 377.635 503.255C375.173 521.003 371.315 541.79 382.114 557.754C392.764 573.505 416.991 580.947 431.68 566.134C425.593 561.433 419.499 556.733 413.411 552.032C394.702 591.874 388.46 635.873 395.064 679.362C395.982 685.401 403.885 689.267 409.372 687.489C415.951 685.362 418.478 679.646 417.495 673.174C417.379 672.418 417.263 671.668 417.159 670.911C416.978 669.637 416.946 669.398 417.056 670.187C417.166 670.976 417.14 670.737 416.972 669.463C416.881 668.706 416.797 667.943 416.713 667.187C416.468 664.911 416.261 662.629 416.093 660.346C415.725 655.4 415.544 650.434 415.544 645.475C415.544 640.516 415.718 635.55 416.08 630.604C416.248 628.321 416.448 626.039 416.687 623.763C416.81 622.625 416.946 621.487 417.075 620.349C417.256 618.94 417.269 618.836 417.108 620.039C417.185 619.47 417.269 618.907 417.353 618.338C418.775 608.711 420.875 599.18 423.647 589.85C425.063 585.098 426.646 580.391 428.397 575.748C429.205 573.608 430.045 571.475 430.937 569.367C430.129 571.274 431.415 568.313 431.577 567.944C432.197 566.548 432.837 565.164 433.49 563.78C435.984 558.472 435.344 552.517 430.491 548.767C425.974 545.275 419.331 545.528 415.221 549.679C415.033 549.866 414.846 550.054 414.665 550.241C413.715 551.075 413.902 550.952 415.227 549.879C415.285 550.054 413.773 550.687 413.611 550.836C412.674 551.728 416.19 550.183 413.986 550.642C413.747 550.694 411.912 550.998 411.815 551.146C412.009 550.842 414.736 551.062 412.661 550.946C412.513 550.939 410.361 550.913 410.367 550.888C410.406 550.739 413.372 551.528 411.149 550.985C410.122 550.732 409.107 550.435 408.086 550.17C407.117 549.918 406.71 550.286 408.616 550.467C407.983 550.409 406.987 549.685 406.438 549.375C405.966 549.11 405.495 548.825 405.042 548.534C404.816 548.385 404.59 548.23 404.364 548.082C403.336 547.344 403.472 547.454 404.764 548.418C403.924 548.269 402.431 546.161 401.863 545.566C400.189 543.808 402.367 547.008 401.979 545.676C401.734 544.849 400.861 543.762 400.448 542.999C398.922 540.193 400.609 544.105 400.157 542.321C399.937 541.467 399.582 540.633 399.343 539.78C399.052 538.745 398.871 537.698 398.612 536.663C398.509 536.256 398.231 534.374 398.535 536.579C397.992 532.628 398.076 528.561 398.321 524.592C398.438 522.749 398.606 520.912 398.806 519.083C398.922 517.984 399.065 516.891 399.194 515.792C399.614 512.287 398.987 517.175 399.284 515.08C399.95 510.451 400.57 505.815 401.217 501.185C406.251 464.939 411.285 428.698 416.319 392.451C419.143 372.103 421.974 351.756 424.798 331.408C425.605 325.582 423.874 320.132 418.064 317.681C413.094 315.58 406.076 317.216 403.537 322.44C403.498 322.524 403.117 323.423 403.032 323.41C402.974 323.513 402.91 323.617 402.852 323.72C403.181 323.307 403.504 322.899 403.834 322.485C403.763 322.472 403.188 323.145 403.11 323.216C402.218 324.011 404.105 322.434 404.112 322.434C404.066 322.408 403.285 322.893 403.213 322.938C401.927 323.707 405.443 321.955 404.047 322.524C403.918 322.576 403.065 322.686 403.02 322.789C403.162 322.485 405.792 322.686 403.957 322.647C403.73 322.641 401.798 322.518 401.734 322.608C401.83 322.453 404.138 323.177 402.968 322.757C402.625 322.634 402.218 322.602 401.863 322.505C401.514 322.414 401.126 322.22 400.771 322.175C399.472 322 401.914 322.434 401.785 322.647C401.753 322.705 399.123 321.244 399.181 321.128C399.336 320.791 400.764 322.906 400.099 321.755C399.943 321.49 399.536 321.186 399.317 320.959C397.869 319.466 399.782 321.981 398.806 320.177C398.347 319.324 397.882 318.477 397.443 317.61C398.431 319.602 397.333 317.074 397.1 316.265C396.493 314.183 396.092 312.063 395.762 309.922C396.085 312.011 395.788 309.884 395.711 309.004C395.601 307.834 395.51 306.664 395.433 305.493C393.901 283.633 392.596 261.759 391.187 239.892C388.337 195.867 385.487 151.842 382.644 107.816C381.041 83.0266 379.438 58.237 377.829 33.4473C377.435 27.3824 372.763 21.518 366.197 21.809C360.226 22.0676 354.138 26.9363 354.558 33.4409Z" fill="#690D44"/>
<path d="M547.699 37.2946C545.224 74.6342 542.749 111.974 540.274 149.307C539.033 167.974 537.798 186.647 536.558 205.313C535.55 220.553 533.869 235.987 535.285 251.259C536.849 268.147 541.934 285.424 555.363 296.758C554.226 294.017 553.095 291.269 551.957 288.527C549.715 332.132 547.466 375.737 545.224 419.342C542.981 462.947 540.732 506.552 538.49 550.157C537.23 574.688 535.963 599.213 534.703 623.744C534.386 629.835 540.28 635.654 546.335 635.382C552.907 635.085 557.631 630.268 557.967 623.744C560.042 583.449 562.116 543.148 564.191 502.854C566.265 462.559 568.34 422.258 570.414 381.964C571.448 361.914 572.482 341.863 573.509 321.813C574.033 311.688 574.55 301.569 575.073 291.444C575.293 287.124 574.763 283.213 571.5 280.025C570.123 278.68 568.669 277.452 567.39 276.003C567.079 275.654 565.625 273.637 566.511 274.995C567.422 276.385 566.02 274.238 565.787 273.883C564.753 272.318 563.829 270.688 563.008 269.007C562.821 268.619 561.761 266.259 562.427 267.824C563.092 269.389 562.123 266.977 561.974 266.57C561.373 264.895 560.85 263.195 560.397 261.475C559.939 259.723 559.551 257.957 559.221 256.173C559.066 255.339 558.95 254.505 558.801 253.671C558.562 252.352 558.924 254.615 558.924 254.66C558.95 254.117 558.782 253.503 558.724 252.959C557.903 245.491 557.916 237.959 558.239 230.465C559.06 211.372 560.688 192.291 561.955 173.224C564.624 132.968 567.293 92.7124 569.962 52.4567C570.298 47.4005 570.634 42.3443 570.97 37.2881C571.37 31.2038 565.328 25.3782 559.338 25.6498C552.688 25.9601 548.132 30.7771 547.699 37.2946Z" fill="#690D44"/>
<g opacity="0.22">
<g opacity="0.22">
<path opacity="0.22" d="M135.684 59.2327C139.29 66.2286 142.631 73.3474 145.714 80.5891C144.641 78.0416 143.562 75.494 142.489 72.9465C153.346 98.7125 160.733 125.817 164.494 153.523C164.112 150.684 163.731 147.852 163.35 145.014C167.085 173.301 166.82 201.815 163.078 230.09C163.46 227.251 163.841 224.419 164.222 221.581C155.156 288.463 128.666 351.077 106.442 414.292C96.0184 443.944 86.6287 473.952 80.3796 504.787C73.7621 537.42 69.6973 571.145 71.5391 604.476C73.6911 643.38 82.9839 681.328 101.893 715.57C105.725 722.508 113.447 728.198 121.008 730.28C128.666 732.387 138.864 731.437 145.656 727.053C160.506 717.471 165.793 698.953 157.133 683.261C153.798 677.222 150.78 671.028 148.073 664.678C149.146 667.226 150.225 669.773 151.297 672.321C143.775 654.436 138.922 635.628 136.292 616.418C136.673 619.256 137.054 622.088 137.436 624.927C133.791 597.35 134.689 569.418 138.36 541.9C137.979 544.739 137.597 547.571 137.216 550.409C146.302 483.741 172.164 421.67 194.311 358.642C217.802 291.792 236.4 221.103 227.922 149.682C225.395 128.429 221.653 107.461 215.43 86.9578C209.155 66.2933 200.812 46.1008 190.931 26.9105C187.37 19.9921 179.157 14.2247 171.815 12.2009C164.158 10.0931 153.96 11.0435 147.168 15.4273C140.337 19.8305 134.327 26.3932 132.466 34.553C130.489 43.23 131.594 51.2928 135.684 59.2327Z" fill="#690D44"/>
</g>
</g>
<g opacity="0.22">
<g opacity="0.22">
<path opacity="0.22" d="M275.672 564.33C274.916 575.166 274.503 586.029 274.425 596.891C274.348 607.754 274.612 618.623 275.207 629.472C275.808 640.322 276.739 651.152 278.012 661.937C279.601 675.457 281.488 688.963 283.912 702.361C285.831 712.997 288.086 723.581 290.665 734.075C290.995 735.413 291.331 736.752 291.667 738.084C292.655 742.248 294.562 745.875 297.392 748.966C299.648 752.451 302.64 755.199 306.368 757.209C310.039 759.55 314.007 760.817 318.259 761.005C322.511 761.955 326.764 761.768 331.016 760.436C333.562 759.363 336.108 758.283 338.654 757.209C343.462 754.365 347.288 750.537 350.132 745.726C351.204 743.179 352.284 740.631 353.356 738.084C354.881 732.413 354.881 726.736 353.356 721.066C349.498 705.859 346.319 690.483 343.837 674.998C343.133 670.601 342.487 666.198 341.892 661.782C342.273 664.62 342.655 667.452 343.036 670.29C341.201 656.577 339.902 642.798 339.152 628.987C338.409 615.228 338.202 601.443 338.545 587.665C338.738 579.873 339.107 572.095 339.65 564.323C339.818 559.914 338.9 555.808 336.897 551.993C335.604 548.023 333.4 544.59 330.286 541.693C327.39 538.57 323.959 536.366 319.991 535.079C316.178 533.074 312.068 532.156 307.667 532.324C304.83 532.706 302 533.087 299.163 533.469C293.741 534.988 289.036 537.736 285.049 541.7C283.382 543.859 281.715 546.019 280.047 548.178C277.146 553.17 275.692 558.556 275.672 564.33Z" fill="#690D44"/>
</g>
</g>
<g opacity="0.22">
<g opacity="0.22">
<path opacity="0.22" d="M369.622 58.8966C384.35 108.114 399.026 157.473 408.978 207.925C411.782 222.137 414.193 236.42 416.132 250.78C415.75 247.942 415.369 245.11 414.988 242.272C420.784 285.87 421.463 329.63 415.66 373.261C416.041 370.422 416.422 367.59 416.804 364.752C411.059 407.303 400.777 449.052 393.759 491.384C386.864 532.965 382.411 575.425 387.969 617.44C389.746 630.882 391.84 644.175 395.484 657.256C399.09 670.219 404.079 682.731 409.676 694.957C411.343 697.117 413.01 699.277 414.678 701.436C416.836 703.104 418.994 704.772 421.153 706.441C427.376 710.081 434.491 711.186 441.548 710.236C447.3 709.46 452.082 707.488 456.676 703.938C461.911 699.891 466.712 693.981 468.141 687.315C483.347 616.269 491.399 543.465 491.773 470.803C492.142 398.128 484.775 325.272 470.415 254.039C462.589 215.225 452.489 176.89 440.178 139.259C437.6 131.371 432.759 124.395 425.476 120.134C418.62 116.118 408.512 114.418 400.829 116.907C393.087 119.416 385.623 124.214 381.713 131.617C377.797 139.033 375.8 148.059 378.488 156.277C393.513 202.21 405.242 249.196 413.572 296.797C415.951 310.369 418.044 323.992 419.873 337.648C419.492 334.809 419.111 331.977 418.729 329.139C428.106 399.557 430.252 470.906 424.985 541.758C423.486 561.886 421.379 581.962 418.697 601.967C419.078 599.129 419.46 596.297 419.841 593.458C416.358 619.231 411.892 644.861 406.451 670.291C425.941 667.743 445.432 665.196 464.916 662.648C463.992 660.631 463.1 658.6 462.234 656.557C463.307 659.105 464.386 661.652 465.459 664.2C458.098 646.503 453.413 627.895 450.802 608.931C451.183 611.769 451.565 614.601 451.946 617.44C447.661 585.279 449.219 552.685 453.465 520.609C453.083 523.447 452.702 526.279 452.321 529.118C460.993 464.615 479.585 401.697 483.198 336.471C486.784 271.794 475.766 206.736 460.153 144.173C451.571 109.788 441.464 75.8175 431.305 41.8723C428.966 34.0488 423.705 26.9041 416.603 22.7467C409.747 18.7314 399.64 17.031 391.956 19.5203C384.214 22.029 376.75 26.8266 372.84 34.2298C368.872 41.7624 367.121 50.5364 369.622 58.8966Z" fill="#690D44"/>
</g>
</g>
<g opacity="0.22">
<g opacity="0.22">
<path opacity="0.22" d="M554.387 78.1838C556.862 166.719 559.331 255.255 561.8 343.79C564.262 431.873 566.718 519.955 569.18 608.038C570.569 657.727 571.952 707.417 573.342 757.099C573.574 765.447 576.747 773.768 582.712 779.73C588.263 785.284 597.362 789.46 605.33 789.105C613.602 788.736 622.184 786.014 627.949 779.73C633.603 773.568 637.558 765.679 637.319 757.099C634.851 668.564 632.375 580.029 629.9 491.493C627.438 403.41 624.982 315.328 622.52 227.245C621.131 177.556 619.748 127.867 618.358 78.1838C618.126 69.8365 614.953 61.5151 608.988 55.5537C603.437 49.9996 594.338 45.8227 586.37 46.1783C578.098 46.5469 569.516 49.269 563.751 55.5537C558.103 61.7091 554.148 69.5973 554.387 78.1838Z" fill="#690D44"/>
</g>
</g>
<g opacity="0.39">
<g opacity="0.39">
<path opacity="0.39" d="M125.707 67.8709C129.384 90.3911 132.996 112.918 136.047 135.528C135.691 132.865 135.329 130.201 134.974 127.537C140.506 168.866 144.189 210.634 142.153 252.358C141.578 264.19 140.518 275.99 138.948 287.732C139.304 285.068 139.665 282.404 140.021 279.74C135.982 309.243 128.027 337.576 117.267 365.308C106.565 392.884 94.4096 419.866 85.6143 448.147C67.985 504.806 60.4887 565.397 63.6488 624.649C65.497 659.273 70.6992 693.936 79.4299 727.499C81.3169 734.754 86.8099 741.705 93.2399 745.468C99.6829 749.237 109.176 750.834 116.394 748.5C132.066 743.424 141.624 727.829 137.384 711.516C132.544 692.895 128.835 674.008 126.256 654.941C126.611 657.605 126.973 660.269 127.329 662.932C121.681 620.394 121.707 577.229 127.335 534.691C126.98 537.355 126.618 540.019 126.263 542.683C130.444 511.705 137.539 481.142 147.672 451.567C158.044 421.295 171.874 392.348 182.285 362.094C203.856 299.428 205.879 231.984 199.61 166.551C195.927 128.132 189.865 89.9644 183.655 51.8876C182.517 44.9046 175.687 37.3397 169.845 33.9193C163.402 30.1498 153.908 28.5528 146.69 30.8869C139.42 33.2404 132.402 37.747 128.731 44.7042C127.723 47.0965 126.708 49.4953 125.7 51.8876C124.279 57.2154 124.279 62.5432 125.707 67.8709Z" fill="#690D44"/>
</g>
</g>
<g opacity="0.39">
<g opacity="0.39">
<path opacity="0.39" d="M245.344 592.217C248.382 602.911 251.419 613.605 254.463 624.293C257.5 634.988 260.537 645.682 263.581 656.37C266.618 667.064 269.656 677.758 272.699 688.446C275.737 699.141 278.774 709.835 281.818 720.523C284.855 731.217 287.893 741.912 290.936 752.599C291.311 753.918 291.686 755.231 292.061 756.55C292.991 760.462 294.781 763.869 297.437 766.772C299.557 770.044 302.368 772.624 305.871 774.518C309.322 776.717 313.044 777.906 317.044 778.087C321.038 778.98 325.032 778.805 329.025 777.551C331.417 776.542 333.814 775.527 336.205 774.518C340.722 771.848 344.315 768.253 346.984 763.733C347.992 761.341 349.007 758.942 350.015 756.55C351.443 751.222 351.443 745.894 350.015 740.567C346.978 729.872 343.941 719.178 340.897 708.49C337.859 697.796 334.822 687.101 331.778 676.414C328.741 665.719 325.704 655.025 322.66 644.337C319.616 633.649 316.585 622.948 313.542 612.26C310.504 601.566 307.467 590.872 304.423 580.184C304.048 578.865 303.674 577.552 303.299 576.233C302.368 572.322 300.578 568.914 297.922 566.011C295.802 562.739 292.991 560.16 289.489 558.265C286.038 556.067 282.316 554.877 278.315 554.696C274.322 553.804 270.328 553.978 266.334 555.233C263.943 556.241 261.545 557.256 259.154 558.265C254.637 560.935 251.044 564.53 248.375 569.05C247.367 571.442 246.352 573.841 245.344 576.233C243.916 581.561 243.916 586.889 245.344 592.217Z" fill="#690D44"/>
</g>
</g>
<g opacity="0.39">
<g opacity="0.39">
<path opacity="0.39" d="M352.626 42.6417C358.701 128.811 365.254 214.954 372.278 301.051C379.27 386.716 386.728 472.335 394.664 557.916C399.116 605.943 403.717 653.965 408.461 701.966C409.269 710.132 411.272 717.232 417.263 723.226C422.478 728.443 431.027 732.368 438.511 732.032C446.285 731.683 454.344 729.129 459.759 723.226C464.845 717.684 469.33 709.777 468.561 701.966C460.063 615.998 452.03 529.984 444.476 443.931C436.96 358.312 429.916 272.654 423.344 186.957C419.654 138.865 416.119 90.7533 412.719 42.6417C412.151 34.6048 409.753 27.2209 403.918 21.3823C398.703 16.1645 390.153 12.2398 382.67 12.576C374.895 12.9251 366.837 15.4791 361.421 21.3823C356.251 27.0205 352.064 34.7212 352.626 42.6417Z" fill="#690D44"/>
</g>
</g>
<g opacity="0.39">
<g opacity="0.39">
<path opacity="0.39" d="M555.221 81.8822C555.473 159.348 555.725 236.808 555.977 314.274C556.229 391.339 556.481 468.411 556.733 545.476C556.876 588.951 557.018 632.427 557.16 675.896C557.186 683.623 560.494 691.686 565.962 697.156C571.177 702.373 579.726 706.298 587.21 705.962C594.984 705.613 603.043 703.059 608.458 697.156C613.848 691.285 617.286 684.03 617.26 675.896C617.008 598.43 616.756 520.971 616.504 443.505C616.252 366.439 616 289.368 615.748 212.303C615.605 168.827 615.463 125.351 615.321 81.8822C615.295 74.1556 611.986 66.0928 606.519 60.6228C601.304 55.405 592.755 51.4803 585.271 51.8165C577.497 52.1656 569.438 54.7196 564.023 60.6228C558.633 66.4937 555.189 73.7418 555.221 81.8822Z" fill="#690D44"/>
</g>
</g>
<path d="M37.8833 24.1238C22.2832 66.7395 18.283 112.446 19.821 157.544C21.4302 204.667 28.9911 251.246 35.2208 297.903C41.6444 346.021 46.6722 394.792 42.0257 443.317C37.6572 488.952 25.0297 533.217 14.7998 577.753C4.95758 620.595 -3.017 664.736 1.61652 708.826C2.17228 714.115 2.91548 719.378 3.82021 724.622C4.03347 725.851 5.9011 725.327 5.68784 724.105C-1.97653 679.549 4.36302 634.419 13.8885 590.671C23.4658 546.698 36.1773 503.332 42.1938 458.641C48.5656 411.292 45.3345 363.556 39.5313 316.324C33.7668 269.421 25.6436 222.771 22.6516 175.564C19.7823 130.298 21.456 84.1 34.5165 40.3787C36.0997 35.0768 37.8575 29.8395 39.7574 24.6411C40.1839 23.4643 38.3098 22.96 37.8833 24.1238Z" fill="black"/>
<path d="M173.496 313.22C167.983 325.272 162.788 337.473 157.922 349.803C153.042 362.166 148.493 374.664 144.279 387.272C140.085 399.822 136.227 412.482 132.712 425.239C129.177 438.054 125.985 450.96 123.141 463.949C120.298 476.932 117.803 489.993 115.664 503.119C115.399 504.729 115.147 506.339 114.889 507.949C114.695 509.171 116.562 509.694 116.756 508.466C118.805 495.392 121.196 482.377 123.942 469.426C126.683 456.481 129.771 443.608 133.203 430.825C136.628 418.042 140.402 405.357 144.506 392.774C148.609 380.192 153.049 367.726 157.818 355.383C162.6 343.008 167.712 330.755 173.153 318.658C173.825 317.17 174.497 315.683 175.176 314.203C175.68 313.071 174.013 312.088 173.496 313.22Z" fill="black"/>
<path d="M290.4 587.639C288.093 600.978 286.458 614.439 285.534 627.946C284.61 641.421 284.384 654.941 284.855 668.441C285.12 676.058 285.611 683.661 286.322 691.252C286.439 692.487 288.377 692.494 288.261 691.252C287.007 677.855 286.439 664.4 286.574 650.945C286.703 637.49 287.531 624.047 289.043 610.676C289.896 603.137 290.975 595.624 292.274 588.149C292.481 586.934 290.613 586.41 290.4 587.639Z" fill="black"/>
<path d="M412.72 230.336C414.122 253.47 415.524 276.604 416.92 299.732C418.316 322.75 419.705 345.762 421.101 368.78C421.89 381.763 422.672 394.746 423.46 407.73C423.537 408.971 425.476 408.978 425.399 407.73C423.996 384.595 422.594 361.461 421.198 338.333C419.802 315.315 418.413 292.303 417.017 269.285C416.229 256.302 415.447 243.319 414.658 230.336C414.587 229.094 412.642 229.088 412.72 230.336Z" fill="black"/>
<path d="M24.2346 78.1708C24.3961 90.2811 25.7145 102.372 28.1508 114.237C30.6001 126.16 34.1802 137.843 38.846 149.087C41.4568 155.391 44.3972 161.553 47.6672 167.54C48.2682 168.64 49.942 167.657 49.341 166.564C43.5765 155.992 38.8267 144.884 35.169 133.414C31.5436 122.047 28.965 110.331 27.5304 98.4797C26.7161 91.7424 26.2638 84.9598 26.1733 78.1708C26.1604 76.9229 24.2216 76.9164 24.2346 78.1708Z" fill="black"/>
<path d="M285.405 166.17C293.075 188.017 295.479 211.21 294.529 234.26C293.56 257.802 289.314 281.085 284.138 304.026C279.046 326.604 272.874 348.917 268.001 371.547C263.226 393.699 259.516 416.213 258.889 438.908C258.275 461.098 260.763 483.54 268.26 504.522C269.19 507.121 270.192 509.688 271.265 512.229C271.743 513.361 273.617 512.863 273.133 511.712C264.415 490.995 260.822 468.643 260.738 446.246C260.654 423.351 263.995 400.572 268.577 378.194C273.21 355.571 279.317 333.296 284.564 310.815C289.864 288.107 294.407 265.115 296.042 241.819C297.651 219.001 296.313 195.802 289.883 173.76C289.088 171.038 288.216 168.336 287.272 165.659C286.865 164.482 284.991 164.986 285.405 166.17Z" fill="black"/>
<path d="M133.19 16.0545C148.402 63.9462 153.689 114.334 151.407 164.437C149.1 215.154 139.387 265.315 125.7 314.119C111.851 363.498 92.7162 410.904 75.7848 459.242C59.9779 504.36 46.6913 551.444 47.6025 599.672C48.3909 641.389 59.7065 683.519 85.2522 717.038C88.4123 721.189 91.7727 725.172 95.2947 729.012C96.1412 729.937 97.5113 728.56 96.6647 727.642C67.0994 695.403 52.4751 652.904 49.9224 609.668C47.0855 561.627 59.0538 514.427 74.3632 469.284C90.6742 421.172 110.132 374.263 124.459 325.466C138.437 277.839 148.784 228.939 152.448 179.366C156.067 130.375 152.894 80.7184 140.215 33.1564C138.638 27.2402 136.906 21.3758 135.058 15.5372C134.683 14.354 132.815 14.8648 133.19 16.0545Z" fill="black"/>
<path d="M365.667 8.97459C373.739 95.0142 380.789 181.144 386.812 267.352C392.803 353.12 397.772 438.959 401.721 524.844C403.937 573.046 405.831 621.261 407.408 669.489C407.446 670.737 409.385 670.737 409.346 669.489C406.522 583.119 402.677 496.782 397.798 410.504C392.945 324.664 387.07 238.883 380.175 153.18C376.304 105.081 372.116 57.0151 367.612 8.96814C367.489 7.73965 365.551 7.72671 365.667 8.97459Z" fill="black"/>
<path d="M272.59 727.777C270.043 715.544 267.82 703.24 265.927 690.89C264.021 678.437 262.45 665.939 261.222 653.402C260.001 640.968 259.109 628.496 258.553 616.011C257.998 603.525 257.772 591.027 257.875 578.535C257.985 565.979 258.424 553.422 259.213 540.885C259.31 539.333 259.413 537.782 259.516 536.23C259.6 534.982 257.662 534.988 257.578 536.23C256.712 548.76 256.182 561.31 255.994 573.867C255.8 586.423 255.949 598.986 256.427 611.536C256.906 624.086 257.726 636.623 258.877 649.128C260.027 661.659 261.52 674.157 263.342 686.61C265.158 699.037 267.303 711.413 269.785 723.723C270.089 725.249 270.405 726.769 270.722 728.288C270.974 729.517 272.842 728.999 272.59 727.777Z" fill="black"/>
<path d="M555.906 15.6343C558.53 96.7147 559.616 177.847 559.124 258.973C558.64 340.092 556.591 421.211 552.985 502.253C550.962 547.739 548.442 593.2 545.444 638.628C545.36 639.876 547.298 639.869 547.382 638.628C552.727 557.683 556.533 476.629 558.775 395.535C561.011 314.442 561.69 233.304 560.811 152.191C560.314 106.666 559.325 61.1467 557.851 15.6408C557.806 14.3864 555.867 14.3864 555.906 15.6343Z" fill="black"/>
</g>
</svg>
