<svg width="585" height="98" viewBox="0 0 585 98" fill="none" xmlns="http://www.w3.org/2000/svg">
<path d="M22.0263 39.4676C21.3139 36.0096 17.7516 34.0254 14.4353 34.0203C10.427 34.0151 7.14659 36.9269 4.98869 40.0654C2.8718 43.1318 1.08808 47.1516 1.88768 50.9602C2.26698 52.7639 3.39974 54.3822 5.01945 55.2686C6.67503 56.1705 8.6074 56.2478 10.427 55.8922C14.1021 55.1758 17.2954 52.6712 19.6224 49.8109C21.9084 47.0022 23.4974 43.6781 24.3841 40.1634C26.2704 32.6855 24.9941 24.8365 21.2319 18.1626C17.2287 11.0661 10.8576 5.52083 3.86105 1.53194C2.97431 1.02689 2.07733 0.547601 1.16496 0.0889303C0.28335 -0.35428 -0.495748 0.980504 0.390989 1.42371C6.9877 4.75294 13.1538 9.32934 17.567 15.3384C21.7854 21.0847 24.1586 27.9339 23.646 35.1077C23.1796 41.6528 20.2887 48.2803 14.8966 52.197C12.344 54.0472 8.36137 55.619 5.42437 53.707C2.31311 51.6817 3.08708 47.265 4.32748 44.3739C5.72679 41.1168 8.11021 37.7927 11.3855 36.2621C14.0816 34.9994 17.7721 35.4581 19.6788 37.9267C20.1247 38.5039 20.3964 39.1636 20.545 39.8748C20.7449 40.8488 22.2262 40.4417 22.0263 39.4676Z" fill="#FF45E5"/>
<path d="M28.7463 39.3236C27.9006 42.0189 27.6238 44.8483 27.4957 47.657C27.3829 50.141 26.9421 53.161 28.3722 55.3668C29.6638 57.3612 32.1036 58.0003 34.0924 56.5933C36.2605 55.0576 36.6552 52.4447 37.1268 50.007C37.7008 47.054 38.8592 44.2917 40.5712 41.8179C40.0945 41.6891 39.6178 41.5603 39.136 41.4263C39.1668 46.384 39.6229 51.3263 40.4841 56.2068C40.6583 57.186 42.1396 56.7686 41.9654 55.7945C41.1299 51.0481 40.7045 46.2449 40.6737 41.4263C40.6686 40.6172 39.6588 40.4265 39.2385 41.0346C37.9315 42.926 36.9166 45.008 36.2349 47.2086C35.8915 48.3218 35.6659 49.4607 35.4507 50.6048C35.2405 51.7386 35.0201 52.9291 34.446 53.9444C33.9694 54.7844 33.1851 55.5575 32.2266 55.7791C31.2835 55.9955 30.4224 55.5368 29.8432 54.7999C28.4388 52.991 28.9257 50.141 29.0129 48.0126C29.1307 45.209 29.3819 42.4158 30.2225 39.7307C30.53 38.7876 29.0436 38.3805 28.7463 39.3236Z" fill="#FF45E5"/>
<path d="M48.1264 42.4776C48.3519 41.4984 49.2643 40.9366 50.2279 40.8696C51.3812 40.7872 52.3038 41.4881 52.8368 42.4724C54.2618 45.1059 52.5549 48.0177 50.966 50.1152C50.561 50.6512 51.2325 51.4551 51.8322 51.249C53.4007 50.713 54.7333 51.8984 55.3945 53.228C56.0711 54.5834 56.3582 56.2068 56.4812 57.7065C56.7221 60.6595 56.23 63.6692 55.0511 66.3851C53.8671 69.1165 51.9962 71.6521 49.5615 73.3786C47.2294 75.0277 43.8772 76.2801 41.1145 74.9401C38.7464 73.7909 36.9576 70.6162 38.4491 68.1271C38.9617 67.2716 37.6342 66.4934 37.1216 67.3489C35.5224 70.0133 36.6757 73.4559 38.9412 75.3421C41.7552 77.6922 45.6507 77.2902 48.7312 75.6926C55.0101 72.4406 58.5263 64.8184 58.0291 57.8971C57.8907 55.9336 57.5217 53.7897 56.517 52.0736C55.497 50.3317 53.4519 49.0587 51.417 49.7545C51.7041 50.1307 51.9962 50.512 52.2833 50.8882C54.395 48.1001 56.148 44.0803 53.6569 40.9366C52.6779 39.6998 51.1864 39.1071 49.6333 39.3854C48.2289 39.6379 46.968 40.6274 46.6348 42.0601C46.4195 43.0341 47.9008 43.4464 48.1264 42.4776Z" fill="#FF45E5"/>
<path d="M72.7295 41.5757C72.4425 39.1381 70.1975 37.4889 67.814 37.5044C65.241 37.5198 63.1446 39.5555 62.1502 41.7973C60.9252 44.5597 60.9969 47.9714 61.407 50.9141C61.5505 51.9499 61.8632 53.0837 62.6833 53.7949C63.6776 54.6659 65.0513 54.537 66.0764 53.7898C66.7428 53.3053 67.2502 52.6714 67.7628 52.0272C68.3471 51.2954 68.9314 50.5636 69.5157 49.837C70.792 48.2445 72.0683 46.6469 73.3446 45.0544C72.914 44.941 72.4886 44.8277 72.0581 44.7143C73.1088 48.059 74.1545 51.4037 75.2052 54.7432C75.5025 55.6863 76.9889 55.2843 76.6865 54.3309C75.6358 50.9862 74.5901 47.6415 73.5394 44.302C73.3805 43.7969 72.6373 43.4826 72.2528 43.9618C70.4742 46.1882 68.6905 48.4146 66.9119 50.6409C66.3122 51.3882 65.5382 52.6766 64.508 52.857C63.6007 53.0167 63.2112 52.0272 63.0318 51.316C62.7704 50.2647 62.7806 49.1258 62.7448 48.0487C62.7038 46.7396 62.7243 45.4152 63.001 44.1319C63.4265 42.1632 64.5695 40.0863 66.5275 39.3133C68.26 38.6279 70.9458 39.4679 71.1918 41.5757C71.3046 42.5498 72.8423 42.5601 72.7295 41.5757Z" fill="#FF45E5"/>
<path d="M81.3047 39.5916C81.4789 41.787 81.6532 43.9824 81.8275 46.1779C81.9146 47.2756 82.0018 48.3733 82.0889 49.471C82.1607 50.3574 82.1658 51.3006 82.4016 52.1664C82.8834 53.9031 84.4979 54.5989 86.1177 53.8825C87.7271 53.1713 89.0649 51.6098 90.131 50.2492C91.4125 48.6052 92.4068 46.7912 93.1193 44.8328C92.6272 44.8328 92.13 44.8328 91.638 44.8328C92.1813 48.5949 93.1142 52.2849 94.4212 55.8512C94.7595 56.7788 96.2459 56.3769 95.9025 55.4389C94.5955 51.8726 93.6626 48.1826 93.1193 44.4205C92.9963 43.5908 91.8686 43.7918 91.638 44.4205C90.9563 46.281 89.9721 48.0383 88.7112 49.5689C88.0859 50.3317 87.3991 51.0429 86.6558 51.6922C86.1228 52.1561 85.0156 53.0579 84.2878 52.4859C83.6932 52.0169 83.7342 50.914 83.683 50.2389C83.5907 49.0587 83.4933 47.8734 83.4011 46.6932C83.2114 44.3277 83.0269 41.9622 82.8372 39.6019C82.7655 38.6072 81.2278 38.6021 81.3047 39.5916Z" fill="#FF45E5"/>
<path d="M85.2924 34.505C87.5067 34.7523 89.721 34.9997 91.9352 35.2471C92.3504 35.2935 92.7041 34.8606 92.7041 34.474C92.7041 34.0154 92.3504 33.7474 91.9352 33.701C89.721 33.4536 87.5067 33.2062 85.2924 32.9589C84.8772 32.9125 84.5236 33.3454 84.5236 33.7319C84.5236 34.1906 84.8772 34.4586 85.2924 34.505Z" fill="#FF45E5"/>
<path d="M101.869 40.7666C102.361 44.6008 102.853 48.4351 103.345 52.2694C103.396 52.6868 103.658 53.0373 104.114 53.0424C104.488 53.0476 104.934 52.6817 104.883 52.2694C104.391 48.4351 103.899 44.6008 103.406 40.7666C103.355 40.3491 103.094 39.9987 102.638 39.9935C102.263 39.9884 101.818 40.3543 101.869 40.7666Z" fill="#FF45E5"/>
<path d="M103.012 45.7707C104.298 47.5384 106.456 48.4557 108.614 48.0538C110.654 47.6775 112.346 45.9975 112.889 44.0133C113.15 43.0548 111.669 42.6425 111.408 43.601C111.008 45.0647 109.808 46.2191 108.327 46.5386C106.871 46.853 105.216 46.1881 104.339 44.9874C104.093 44.6524 103.673 44.4823 103.289 44.7091C102.955 44.9049 102.761 45.4306 103.012 45.7707Z" fill="#FF45E5"/>
<path d="M111.464 40.3955C111.464 45.343 111.464 50.2904 111.464 55.2379C111.464 56.2325 113.002 56.2325 113.002 55.2379C113.002 50.2904 113.002 45.343 113.002 40.3955C113.002 39.4009 111.464 39.4009 111.464 40.3955Z" fill="#FF45E5"/>
<path d="M151.474 7.2997C153.255 23.687 152.341 40.3424 148.718 56.4215C147.702 60.9304 146.479 65.379 145.054 69.7672C144.657 71 146.6 71.5292 146.997 70.3032C152.099 54.5523 154.6 37.9707 154.364 21.4226C154.297 16.706 154.001 11.9895 153.491 7.2997C153.349 6.02676 151.333 6.01336 151.474 7.2997Z" fill="#FF45E5"/>
<path d="M146.842 40.6573C156.61 39.8533 166.411 39.4982 176.212 39.5987C177.51 39.6121 177.51 37.6022 176.212 37.5888C166.411 37.4883 156.61 37.8434 146.842 38.6474C145.558 38.7546 145.545 40.7645 146.842 40.6573Z" fill="#FF45E5"/>
<path d="M172.683 6.96475C171.453 23.198 171.204 39.4982 171.957 55.7583C172.172 60.4012 172.468 65.044 172.845 69.6802C172.945 70.9598 174.969 70.9732 174.861 69.6802C173.544 53.4536 173.214 37.1601 173.88 20.8933C174.068 16.2438 174.344 11.6076 174.693 6.96475C174.801 5.67842 172.784 5.67842 172.683 6.96475Z" fill="#FF45E5"/>
<path d="M181.604 53.467C182.108 52.3616 183.278 51.8859 184.32 51.3968C185.375 50.9011 186.478 50.3919 187.231 49.4673C189.536 46.62 186.202 42.9821 183.002 43.8731C179.016 44.9853 178.659 49.6482 179.09 53.0382C179.587 56.9977 180.723 61.0309 182.666 64.5415C183.627 66.2701 185.14 67.6971 187.237 67.6703C189.375 67.6435 191.237 66.3103 192.851 65.0641C193.872 64.2736 192.44 62.8599 191.425 63.6438C190.303 64.5148 188.951 65.5063 187.493 65.6537C185.994 65.8078 185.066 64.7224 184.407 63.5299C182.901 60.8232 181.947 57.7347 181.375 54.7065C180.885 52.1003 180.118 48.0269 182.7 46.2247C183.701 45.5212 185.173 45.5681 185.819 46.7406C186.276 47.5713 185.731 48.2949 185.052 48.7572C183.284 49.943 180.831 50.3316 179.869 52.4621C179.338 53.6211 181.073 54.6462 181.604 53.467Z" fill="#FF45E5"/>
<path d="M194.262 47.1627C193.765 52.2008 194.363 57.3595 196.057 62.1364C196.393 63.0877 196.723 64.1597 197.489 64.8698C198.329 65.6537 199.499 65.7408 200.514 65.2651C202.504 64.3272 203.862 61.8215 204.763 59.9188C205.906 57.4868 206.544 54.8807 206.645 52.2008C206.685 51.0954 204.837 50.8006 204.662 51.9328C204.285 54.3782 204.326 56.837 204.843 59.2622C205.314 61.4798 206.154 64.0525 207.694 65.7743C209.206 67.4626 211.499 67.2683 213.025 65.714C214.652 64.0525 215.505 61.5267 216.157 59.3493C217.011 56.502 217.381 53.5072 217.28 50.5326C217.233 49.2328 215.337 49.2462 215.263 50.5326C215.008 54.9744 215.694 59.4297 217.28 63.5835C217.737 64.7827 219.687 64.2602 219.223 63.0475C217.69 59.0411 217.025 54.8137 217.273 50.5326C216.601 50.5326 215.929 50.5326 215.257 50.5326C215.351 53.2861 215.028 56.0196 214.255 58.666C213.878 59.9456 213.408 61.1917 212.83 62.391C212.393 63.2887 211.821 64.4009 210.874 64.8497C208.83 65.8279 207.58 61.5535 207.19 60.2739C206.423 57.7548 206.208 55.0682 206.611 52.4621C205.953 52.375 205.294 52.2812 204.628 52.1941C204.534 54.6462 203.936 57.0781 202.84 59.2756C202.296 60.3677 201.644 61.4463 200.864 62.3843C200.528 62.7929 199.97 63.483 199.378 63.5433C198.867 63.5902 198.639 63.1346 198.444 62.7259C197.355 60.4347 196.79 57.728 196.427 55.2357C196.037 52.5559 196.01 49.8358 196.279 47.1426C196.407 45.8763 194.39 45.8897 194.262 47.1627Z" fill="#FF45E5"/>
<path d="M226.685 50.4522C225.905 55.4836 225.118 60.5218 224.339 65.5532C224.258 66.0959 224.48 66.6252 225.045 66.7927C225.522 66.9266 226.201 66.6252 226.288 66.0892C227.068 61.0577 227.855 56.0196 228.634 50.9882C228.715 50.4455 228.493 49.9162 227.928 49.7487C227.444 49.6147 226.765 49.9162 226.685 50.4522Z" fill="#FF45E5"/>
<path d="M220.487 49.0385C226.288 50.2445 232.09 51.4504 237.891 52.6631C239.155 52.9243 239.699 50.9881 238.429 50.7269C232.627 49.5209 226.826 48.315 221.024 47.1023C219.761 46.8344 219.216 48.7706 220.487 49.0385Z" fill="#FF45E5"/>
<path d="M235.478 61.4597C234.947 63.2217 235.753 65.0909 237.152 66.2098C238.779 67.5162 240.943 67.7373 242.96 67.7239C244.728 67.7172 246.617 67.5229 248.17 66.6117C249.864 65.6202 250.731 63.8917 250.933 61.989C251.302 58.5655 250.14 54.0901 247.034 52.1874C244.096 50.3919 240.197 51.3633 237.763 53.5541C234.503 56.4953 234.093 61.3391 234.664 65.4192C234.738 65.9619 235.431 66.2433 235.908 66.1227C236.493 65.9686 236.688 65.4192 236.614 64.8832C236.204 61.9555 236.426 58.7329 238.113 56.2139C239.471 54.1839 242.18 52.8105 244.634 53.3665C247.451 53.9963 248.533 56.9575 248.869 59.5235C249.057 60.9639 249.098 62.6857 248.21 63.9319C247.444 65.0038 246.093 65.4393 244.835 65.6068C243.175 65.8346 241.232 65.8614 239.632 65.3053C238.274 64.8363 236.957 63.5232 237.421 61.989C237.797 60.7495 235.854 60.2203 235.478 61.4597Z" fill="#FF45E5"/>
<g clip-path="url(#clip0)">
<path d="M289.149 25.823C287.3 39.2879 285.444 52.7528 283.594 66.2177C283.519 66.7674 283.731 67.3036 284.311 67.4732C284.788 67.609 285.498 67.3036 285.573 66.7606C287.422 53.2957 289.279 39.8309 291.128 26.366C291.203 25.8162 290.991 25.2801 290.411 25.1104C289.934 24.9747 289.224 25.2801 289.149 25.823Z" fill="#FF45E5"/>
<path d="M274.975 23.0872C281.915 22.3949 288.882 22.0488 295.849 22.0488C301.008 22.0556 307.743 21.6145 311.51 25.863C313.325 27.9058 314.048 30.6951 314.594 33.3012C315.222 36.3145 315.754 39.3889 315.788 42.4701C315.823 45.4766 315.29 48.4899 313.728 51.0961C312.39 53.3289 310.432 55.141 308.234 56.5187C302.277 60.2582 295.051 60.645 288.213 61.0115C286.903 61.0793 286.896 63.1154 288.213 63.0475C294.826 62.6946 301.711 62.301 307.695 59.1791C310.2 57.876 312.506 56.1115 314.26 53.8922C316.212 51.4286 317.31 48.551 317.685 45.4495C318.088 42.1511 317.665 38.8121 317.105 35.5612C316.594 32.6158 316.048 29.5957 314.669 26.9149C311.817 21.3701 305.716 20.2164 299.998 20.0603C291.659 19.8363 283.28 20.2232 274.975 21.0512C273.678 21.1801 273.665 23.2161 274.975 23.0872Z" fill="#FF45E5"/>
<path d="M334.016 47.8392C332.59 46.0679 330.031 45.6403 327.922 46.2918C325.5 47.0384 323.889 49.1151 323.268 51.5041C322.674 53.7912 322.715 56.8452 324.067 58.8813C324.797 59.9875 325.95 60.7137 327.308 60.7069C328.734 60.7001 330.037 59.9739 331.116 59.112C333.477 57.2321 335.155 54.5445 335.879 51.633C336.199 50.3571 334.309 49.8481 333.907 51.0901C333.211 53.2279 332.542 55.4539 332.917 57.7207C333.224 59.5328 334.255 61.277 335.933 62.1321C337.1 62.7293 338.137 60.9716 336.964 60.3743C333.688 58.698 334.998 54.3138 335.872 51.6262C335.217 51.443 334.555 51.2665 333.9 51.0833C333.402 53.0786 332.426 54.9314 331.006 56.438C329.956 57.5511 327.547 59.7296 326.045 58.1144C324.872 56.852 324.831 54.4834 325.063 52.8886C325.322 51.1104 326.189 49.3119 327.874 48.484C329.437 47.7171 331.443 47.8799 332.569 49.278C332.917 49.7056 333.654 49.6377 334.016 49.278C334.439 48.8572 334.364 48.2668 334.016 47.8392Z" fill="#FF45E5"/>
<path d="M341.529 44.6019C343.405 58.0668 343.61 71.7693 342.177 85.2884C341.768 89.1162 341.222 92.9303 340.553 96.7241C341.222 96.8123 341.891 96.9073 342.566 96.9956C342.457 86.9783 343.337 76.9611 345.248 67.1271C346.21 62.166 347.425 57.2524 348.885 52.4135C349.24 51.2394 349.799 47.4931 351.731 48.1243C353.976 48.864 353.382 51.7144 352.897 53.3908C352.235 55.6711 351.253 58.4469 352.713 60.6458C353.798 62.2814 356.234 63.2723 357.954 61.9828C358.991 61.2023 357.974 59.4378 356.923 60.225C356.268 60.7137 355.531 60.5576 354.91 60.0621C354.01 59.3427 353.928 58.1143 354.064 57.0556C354.371 54.6463 355.695 52.4542 355.361 49.9635C355.101 48.0428 353.621 46.224 351.594 46.0339C349.424 45.8303 348.264 47.6967 347.663 49.4884C344.408 59.207 342.416 69.4346 341.345 79.6079C340.737 85.3835 340.471 91.1861 340.533 96.9888C340.546 98.095 342.334 98.4276 342.546 97.2603C344.975 83.5782 345.746 69.6179 344.763 55.7593C344.484 51.8434 344.067 47.941 343.521 44.0522C343.324 42.7627 341.351 43.3193 341.529 44.6019Z" fill="#FF45E5"/>
<path d="M361.106 46.8958C361.823 49.2508 360.977 51.6737 360.902 54.0626C360.847 55.8611 361.325 57.7886 362.499 59.1866C363.822 60.7612 365.958 61.1141 367.801 60.2657C369.807 59.3495 371.274 57.3542 372.25 55.4539C373.424 53.16 374.004 50.6014 373.922 48.0292C373.888 46.9366 372.134 46.5837 371.909 47.7578C371.076 52.1556 371.875 56.7298 374.215 60.5643C374.897 61.6841 376.672 60.6593 375.982 59.5395C373.935 56.1937 373.151 52.1624 373.881 48.3007C373.212 48.2125 372.543 48.1175 371.868 48.0292C371.929 49.9159 371.615 51.7823 370.892 53.5333C370.209 55.196 369.111 57.0081 367.596 58.0465C366.354 58.8948 364.86 58.983 363.904 57.6935C363.031 56.5127 362.867 54.9381 362.976 53.5265C363.16 51.1172 363.802 48.7418 363.072 46.3597C362.703 45.1109 360.724 45.6403 361.106 46.8958Z" fill="#FF45E5"/>
<path d="M379.831 45.9593C380.159 51.0629 380.479 56.1665 380.807 61.2702C380.889 62.5732 382.936 62.58 382.854 61.2702C382.527 56.1665 382.206 51.0629 381.878 45.9593C381.796 44.6562 379.749 44.6494 379.831 45.9593Z" fill="#FF45E5"/>
<path d="M380.65 55.9154C380.862 55.8 381.073 55.6982 381.285 55.5964C381.394 55.5489 381.408 55.5421 381.319 55.5761C381.38 55.5489 381.442 55.5286 381.51 55.5014C381.605 55.4675 381.701 55.4336 381.796 55.3996C382.26 55.2435 382.745 55.1214 383.229 55.0399C383.277 55.0331 383.332 55.0264 383.38 55.0196C383.277 55.0331 383.284 55.0331 383.414 55.0196C383.53 55.006 383.653 54.9992 383.769 54.9856C384.007 54.9721 384.246 54.9653 384.485 54.9653C384.724 54.9721 384.963 54.9856 385.195 55.006C385.243 55.0128 385.297 55.0196 385.345 55.0196C385.243 55.006 385.249 55.006 385.379 55.0264C385.515 55.0467 385.645 55.0739 385.782 55.101C386.307 55.2028 386.914 54.9517 387.044 54.3884C387.16 53.8794 386.887 53.2482 386.328 53.1329C384.035 52.6781 381.667 53.0175 379.62 54.1509C379.149 54.4088 378.958 55.0874 379.251 55.5421C379.558 56.024 380.152 56.1937 380.65 55.9154Z" fill="#FF45E5"/>
<path d="M389.466 45.0838C387.774 49.9974 387.917 55.4675 389.883 60.2793C390.094 60.7951 390.565 61.1412 391.145 60.9919C391.63 60.863 392.066 60.2454 391.862 59.7364C390.019 55.2232 389.862 50.2349 391.445 45.6199C391.868 44.3848 389.889 43.8486 389.466 45.0838Z" fill="#FF45E5"/>
<path d="M397.532 46.9909C396.98 49.8074 396.591 52.651 396.386 55.515C396.236 57.6528 395.806 60.4218 397.055 62.3425C398.331 64.3174 401.115 64.2835 402.602 62.5596C404.035 60.8969 404.206 57.999 402.793 56.2683C402.056 55.3657 400.91 54.9313 399.764 55.2503C398.651 55.5625 397.757 56.5194 397.812 57.7139C397.873 59.017 399.921 59.0238 399.859 57.7139C399.832 57.1303 400.637 57.0827 401.006 57.3542C401.681 57.8429 401.777 58.9423 401.681 59.6956C401.579 60.5236 401.176 61.4059 400.351 61.7317C399.573 62.0371 398.918 61.6434 398.604 60.924C398.276 60.1707 398.269 59.2952 398.29 58.4876C398.31 57.2999 398.385 56.1055 398.481 54.9246C398.679 52.4406 399.027 49.977 399.511 47.5338C399.757 46.2511 397.785 45.7014 397.532 46.9909Z" fill="#FF45E5"/>
<path d="M403.216 47.2487C403.558 52.0062 404.472 56.7027 405.973 61.2362C406.383 62.4782 408.362 61.942 407.945 60.6933C406.506 56.3362 405.591 51.8298 405.264 47.2487C405.168 45.9525 403.121 45.9457 403.216 47.2487Z" fill="#FF45E5"/>
</g>
<g clip-path="url(#clip1)">
<path d="M414.346 62.1914C415.481 63.6955 415.838 65.8245 414.994 67.5669C414.196 69.2087 412.543 70.3315 410.75 70.4109C409.755 70.4586 409.75 72.0474 410.75 71.9998C413.061 71.8938 415.305 70.5116 416.336 68.3666C417.408 66.1476 417.175 63.3565 415.688 61.3917C415.434 61.0527 415.02 60.8727 414.626 61.1057C414.299 61.3016 414.087 61.8524 414.346 62.1914Z" fill="#FF45E5"/>
</g>
<g clip-path="url(#clip2)">
<path d="M453.879 31.913C453.804 42.8689 453.333 53.8249 452.456 64.7493C452.205 67.8724 451.917 70.9891 451.603 74.0996C451.478 75.3085 453.365 75.3022 453.484 74.0996C454.593 63.2004 455.302 52.257 455.603 41.3011C455.69 38.1717 455.741 35.0424 455.759 31.913C455.766 30.6978 453.885 30.6978 453.879 31.913Z" fill="#FF45E5"/>
<path d="M450.155 58.7802C453.089 55.6193 457.345 51.9799 461.965 53.8248C466.523 55.6445 465.532 61.5632 462.968 64.6233C461.213 66.7138 458.912 68.2123 456.643 69.6794C455.628 70.3343 456.574 71.9714 457.59 71.3102C462.047 68.4201 467.068 64.7996 467.049 58.8809C467.043 56.3686 465.921 53.9759 463.764 52.6285C461.658 51.3188 458.9 51.1803 456.568 51.8918C453.459 52.8363 450.983 55.1093 448.82 57.4453C448.005 58.3331 449.328 59.668 450.155 58.7802Z" fill="#FF45E5"/>
<path d="M441.16 41.0367C451.873 37.8002 462.868 35.5335 473.989 34.2994C475.18 34.1672 475.192 32.2782 473.989 32.4104C462.699 33.6634 451.534 35.9302 440.658 39.217C439.505 39.5696 439.994 41.3893 441.16 41.0367Z" fill="#FF45E5"/>
<path d="M481.806 40.8225C485.774 43.9393 486.369 49.858 483.241 53.7618C481.498 55.9341 479.355 57.842 479.022 60.7699C478.734 63.3325 480.213 65.6748 482.846 66.0149C485.523 66.3612 488.218 64.6737 490.845 65.5111C491.998 65.8826 492.494 64.0566 491.346 63.6914C488.958 62.9296 486.632 63.9496 484.257 64.1511C483.235 64.2392 482.119 64.1448 481.423 63.2822C480.671 62.3503 480.778 61.0091 481.116 59.9387C481.937 57.3068 484.532 55.6382 485.855 53.2833C487.027 51.1992 487.372 48.7498 487.027 46.3949C486.639 43.7189 485.285 41.1625 483.147 39.4877C482.194 38.7447 480.853 40.0732 481.806 40.8225Z" fill="#FF45E5"/>
<path d="M493.189 49.2851C491.152 52.8678 493.365 57.5524 497.114 58.8369C501.452 60.3229 506.097 57.5209 507.971 53.5919C509.795 49.7636 509.946 44.5249 507.545 40.8918C506.416 39.1855 504.711 37.964 502.655 37.7436C500.555 37.5232 498.512 38.4866 496.982 39.8718C492.437 44.0023 493.678 50.5318 494.963 55.8208C495.252 56.9983 497.063 56.5009 496.775 55.3171C495.816 51.3692 494.587 46.5335 496.932 42.8312C498.668 40.0859 502.486 38.2977 505.144 40.9044C507.62 43.3349 507.846 47.5724 507.018 50.7459C506.122 54.1963 503.42 57.2376 499.671 57.3257C497.828 57.3698 496.111 56.5638 495.12 54.9771C494.224 53.5478 493.96 51.7407 494.819 50.2295C495.415 49.178 493.791 48.2273 493.189 49.2851Z" fill="#FF45E5"/>
<path d="M515.462 35.9931C515.462 46.1179 515.462 56.2427 515.462 66.3675C515.462 67.5827 517.343 67.5827 517.343 66.3675C517.343 56.2427 517.343 46.1179 517.343 35.9931C517.343 34.7779 515.462 34.7779 515.462 35.9931Z" fill="#FF45E5"/>
<path d="M514.139 44.9405C518.559 45.3686 523.103 47.3961 525.523 51.2874C527.786 54.933 527.987 59.8758 524.834 63.0681C523.179 64.7493 520.928 65.6686 518.571 65.4104C517.368 65.2782 517.38 67.1671 518.571 67.2994C523.511 67.8409 528.143 63.8363 528.946 59.0321C529.83 53.7682 527.015 48.6554 522.646 45.8472C520.094 44.2038 517.129 43.3538 514.133 43.0578C512.936 42.9382 512.942 44.8271 514.139 44.9405Z" fill="#FF45E5"/>
<path d="M532.049 47.0624C532.845 45.2427 534.644 44.0653 536.619 43.9645C538.625 43.8638 540.417 44.9279 541.464 46.6216C543.89 50.5318 541.502 55.3612 537.415 56.8472C537.766 57.3068 538.123 57.7728 538.474 58.2324C539.408 56.759 541.301 56.1986 542.956 56.5323C544.856 56.9101 546.134 58.3898 546.579 60.2473C547.658 64.7871 543.608 68.3446 539.439 68.8672C536.525 69.2261 533.597 68.3698 531.014 67.0664C529.936 66.5249 528.983 68.1494 530.068 68.6972C535.258 71.3102 542.354 72.0973 546.548 67.2049C548.285 65.1775 549.005 62.4762 548.422 59.8569C547.89 57.4516 546.153 55.4053 543.746 54.7882C541.182 54.1271 538.311 54.996 536.857 57.2879C536.437 57.9554 537.145 58.9565 537.916 58.6732C541.966 57.1998 544.943 53.1637 544.241 48.7373C543.577 44.5627 539.772 41.4396 535.547 42.2015C533.359 42.5919 531.328 44.0464 530.425 46.1053C529.942 47.2135 531.566 48.1769 532.049 47.0624Z" fill="#FF45E5"/>
<path d="M553.87 54.656C556.233 58.7361 556.697 64.0378 560.659 67.0601C563.812 69.4653 569.134 68.9994 570.325 64.68C570.921 62.514 570.325 60.1969 569.654 58.1253C568.877 55.7201 567.868 53.3841 566.645 51.174C564.727 47.7046 561.355 43.7504 556.929 45.4694C554.729 46.3257 553.03 48.2713 552.51 50.5884C551.933 53.1448 552.616 55.8208 554.027 57.9805C554.685 58.9943 556.315 58.0498 555.65 57.0297C553.676 53.9885 553.437 49.4047 557.048 47.4779C560.515 45.6268 563.273 49.0458 564.815 51.7533C565.843 53.5667 566.721 55.4619 567.429 57.4201C568.068 59.202 568.739 61.1162 568.676 63.0303C568.62 64.7493 567.699 66.1471 566 66.5501C564.451 66.9216 562.822 66.4052 561.612 65.4167C558.108 62.5581 557.662 57.4264 555.494 53.6926C554.885 52.6474 553.262 53.5981 553.87 54.656Z" fill="#FF45E5"/>
<path d="M572.958 45.9794C575.139 45.1231 577.616 44.0653 579.991 44.6886C580.875 44.9216 581.721 45.3497 582.33 46.0487C583.119 46.9491 583.201 48.158 583.069 49.304C582.913 50.6577 582.549 51.9989 582.273 53.3337C581.997 54.6623 581.715 55.9908 581.439 57.3257C580.863 60.0899 580.28 62.8477 579.703 65.6119C579.452 66.7957 581.264 67.3057 581.515 66.1156C582.179 62.9422 582.844 59.775 583.508 56.6016C583.828 55.0653 584.154 53.5352 584.473 51.9989C584.774 50.5633 585.132 49.0899 584.956 47.6165C584.661 45.186 582.787 43.4734 580.499 42.8815C577.753 42.17 575.001 43.1712 572.463 44.1723C571.341 44.5942 571.823 46.4202 572.958 45.9794Z" fill="#FF45E5"/>
<path d="M577.327 57.6846C579.433 57.5461 581.54 57.4013 583.646 57.2628C584.154 57.2313 584.586 56.8535 584.586 56.3183C584.586 55.8335 584.154 55.3423 583.646 55.3738C581.54 55.5123 579.433 55.6572 577.327 55.7957C576.819 55.8272 576.387 56.205 576.387 56.7402C576.387 57.225 576.819 57.7161 577.327 57.6846Z" fill="#FF45E5"/>
</g>
<defs>
<clipPath id="clip0">
<rect width="134" height="78" fill="white" transform="translate(274 20)"/>
</clipPath>
<clipPath id="clip1">
<rect width="7" height="11" fill="white" transform="translate(410 61)"/>
</clipPath>
<clipPath id="clip2">
<rect width="145" height="44" fill="white" transform="translate(440 31)"/>
</clipPath>
</defs>
</svg>
